<svg width="15" height="15" viewBox="0 0 15 15" xmlns="http://www.w3.org/2000/svg">
<path d="M1.12496 12.131C0.628739 12.6109 0.628739 13.3891 1.12496 13.869C1.62117 14.349 2.4257 14.349 2.92192 13.869L1.12496 12.131ZM14.6667 2C14.6667 1.32124 14.0978 0.770991 13.3961 0.770989L1.96029 0.77099C1.25853 0.77099 0.689643 1.32124 0.689643 2C0.689643 2.67876 1.25853 3.22901 1.96029 3.22901H12.1254V13.0611C12.1254 13.7398 12.6943 14.2901 13.3961 14.2901C14.0978 14.2901 14.6667 13.7398 14.6667 13.0611L14.6667 2ZM2.92192 13.869L14.2946 2.86904L12.4976 1.13096L1.12496 12.131L2.92192 13.869Z" fill="currentColor"/>
</svg>
