<svg width="46" height="44" viewBox="0 0 46 44" fill="none" xmlns="http://www.w3.org/2000/svg">
<path fill-rule="evenodd" clip-rule="evenodd" d="M23.1141 0.367189C17.8142 0.365426 12.6866 2.24995 8.64957 5.68336C4.61249 9.11677 1.92948 13.8749 1.08089 19.1058C0.232306 24.3366 1.27355 29.6988 4.01822 34.2321C6.76288 38.7654 11.0317 42.1739 16.0605 43.8473C17.1689 44.0541 17.5828 43.3633 17.5828 42.7722C17.5828 42.2402 17.5643 40.4853 17.5532 38.6196C11.3457 39.9681 10.0377 35.9891 10.0377 35.9891C9.02164 33.403 7.55845 32.7232 7.55845 32.7232C5.53364 31.3378 7.70995 31.3674 7.70995 31.3674C9.95276 31.5262 11.1314 33.6653 11.1314 33.6653C13.123 37.0753 16.3524 36.0926 17.6234 35.5126C17.8266 34.0717 18.4031 33.089 19.0423 32.5311C14.1022 31.9733 8.87385 30.0595 8.87385 21.5106C8.84068 19.2901 9.6652 17.1424 11.1758 15.5145C10.943 14.9529 10.1782 12.6845 11.3901 9.60333C11.3901 9.60333 13.2634 9.00483 17.5274 11.8902C21.186 10.8902 25.0459 10.8902 28.7045 11.8902C32.9463 9.01961 34.8344 9.60333 34.8344 9.60333C36.0463 12.6771 35.2852 14.9455 35.0524 15.5145C36.5588 17.1415 37.3806 19.2862 37.3469 21.5032C37.3469 30.0743 32.1297 31.9585 27.16 32.5127C27.9581 33.2035 28.6712 34.5631 28.6712 36.6431C28.6712 39.6282 28.6491 42.0333 28.6491 42.7648C28.6491 43.3596 29.0481 44.0541 30.1788 43.8362C35.2002 42.1564 39.4606 38.746 42.1985 34.2143C44.9365 29.6827 45.9734 24.3252 45.1241 19.0994C44.2748 13.8736 41.5946 9.12008 37.5624 5.68844C33.5303 2.25679 28.4091 0.370677 23.1141 0.367189Z" fill="#FDFDFD"/>
</svg>
