<svg width="45" height="45" viewBox="0 0 45 45" fill="none" xmlns="http://www.w3.org/2000/svg">
<path d="M22.3459 0.367188C10.0054 0.367188 0 10.3594 0 22.6836C0 35.0078 10.0054 45 22.3459 45C34.6865 45 44.6919 35.0078 44.6919 22.6836C44.6919 10.3594 34.6865 0.367188 22.3459 0.367188ZM13.9588 10.4152C15.5267 10.4152 16.5714 11.4584 16.5714 12.8495C16.5714 14.2406 15.5267 15.2838 13.7856 15.2838C12.2176 15.2857 11.173 14.2406 11.173 12.8495C11.173 11.4584 12.2176 10.4152 13.9588 10.4152ZM16.7594 31.9821H11.173V17.1045H16.7594V31.9821ZM35.3811 31.9821H30.1223V23.8515C30.1223 21.6031 28.7201 21.0843 28.195 21.0843C27.6699 21.0843 25.9157 21.4302 25.9157 23.8515C25.9157 24.1974 25.9157 31.9821 25.9157 31.9821H20.4838V17.1045H25.9176V19.1799C26.6177 17.9693 28.0199 17.1045 30.6493 17.1045C33.2787 17.1045 35.3811 19.1799 35.3811 23.8515V31.9821Z" fill="#FDFDFD"/>
</svg>
