<svg width="59" height="50" viewBox="0 0 59 50" fill="none" xmlns="http://www.w3.org/2000/svg">
<path d="M28.0625 25.0938C28.0625 32.6562 26.9271 38.4688 24.6562 42.5312C22.4062 46.5938 19.1458 48.625 14.875 48.625C10.5625 48.625 7.29167 46.5833 5.0625 42.5C2.83333 38.3958 1.71875 32.5729 1.71875 25.0312C1.71875 17.1562 2.82292 11.2917 5.03125 7.4375C7.23958 3.58333 10.5521 1.65625 14.9688 1.65625C19.2188 1.65625 22.4583 3.6875 24.6875 7.75C26.9375 11.7917 28.0625 17.5729 28.0625 25.0938ZM4.90625 25.0938C4.90625 31.8854 5.75 37.0208 7.4375 40.5C9.14583 43.9583 11.625 45.6875 14.875 45.6875C18.1458 45.6875 20.625 43.9688 22.3125 40.5312C24.0208 37.0938 24.875 31.9479 24.875 25.0938C24.875 18.3229 24.0417 13.2188 22.375 9.78125C20.7083 6.32292 18.2396 4.59375 14.9688 4.59375C11.6146 4.59375 9.09375 6.34375 7.40625 9.84375C5.73958 13.3229 4.90625 18.4062 4.90625 25.0938ZM39.625 28.0312V48H36.5625V2.3125H42.8125C47.2708 2.3125 50.5312 3.36458 52.5938 5.46875C54.6562 7.57292 55.6875 10.7188 55.6875 14.9062C55.6875 18.0729 55.125 20.6771 54 22.7188C52.875 24.7604 50.9896 26.2917 48.3438 27.3125L57.4062 48H53.9688L45.4375 28.0312H39.625ZM39.625 25.2188H43.9062C46.6771 25.2188 48.8125 24.3646 50.3125 22.6562C51.8125 20.9479 52.5625 18.4062 52.5625 15.0312C52.5625 11.5938 51.7917 9.11458 50.25 7.59375C48.7292 6.07292 46.3229 5.3125 43.0312 5.3125H39.625V25.2188Z" fill="#FFFDFD"/>
<path d="M24.6562 42.5312L23.7834 42.0433L23.7815 42.0468L24.6562 42.5312ZM5.0625 42.5L4.18375 42.9773L4.18478 42.9792L5.0625 42.5ZM24.6875 7.75L23.8108 8.23106L23.8138 8.23641L24.6875 7.75ZM7.4375 40.5L6.53773 40.9364L6.54092 40.9429L7.4375 40.5ZM22.3125 40.5312L21.417 40.0862L21.4148 40.0906L22.3125 40.5312ZM22.375 9.78125L21.4742 10.2154L21.4752 10.2175L22.375 9.78125ZM7.40625 9.84375L6.50548 9.40945L6.50439 9.41172L7.40625 9.84375ZM27.0625 25.0938C27.0625 32.5809 25.9342 38.1955 23.7834 42.0433L25.5291 43.0192C27.92 38.742 29.0625 32.7316 29.0625 25.0938H27.0625ZM23.7815 42.0468C21.6888 45.8252 18.7448 47.625 14.875 47.625V49.625C19.5468 49.625 23.1237 47.3623 25.531 43.0157L23.7815 42.0468ZM14.875 47.625C12.8831 47.625 11.1753 47.1557 9.71701 46.2454C8.25484 45.3328 6.98938 43.9427 5.94022 42.0208L4.18478 42.9792C5.36479 45.1407 6.84933 46.8131 8.65799 47.9421C10.4705 49.0735 12.5544 49.625 14.875 49.625V47.625ZM5.94125 42.0227C3.8262 38.1287 2.71875 32.4979 2.71875 25.0312H0.71875C0.71875 32.648 1.84046 38.663 4.18375 42.9773L5.94125 42.0227ZM2.71875 25.0312C2.71875 17.2144 3.82098 11.5612 5.89892 7.93465L4.16358 6.94035C1.82485 11.0221 0.71875 17.0981 0.71875 25.0312H2.71875ZM5.89892 7.93465C7.93032 4.38927 10.9131 2.65625 14.9688 2.65625V0.65625C10.1911 0.65625 6.54885 2.7774 4.16358 6.94035L5.89892 7.93465ZM14.9688 2.65625C16.9275 2.65625 18.6115 3.12201 20.0547 4.02692C21.5023 4.93459 22.761 6.3178 23.8108 8.23106L25.5642 7.26894C24.3849 5.1197 22.9091 3.45604 21.1172 2.33246C19.3208 1.20611 17.26 0.65625 14.9688 0.65625V2.65625ZM23.8138 8.23641C25.9445 12.0639 27.0625 17.648 27.0625 25.0938H29.0625C29.0625 17.4979 27.9305 11.5195 25.5612 7.26359L23.8138 8.23641ZM3.90625 25.0938C3.90625 31.9387 4.75186 37.2544 6.53775 40.9364L8.33725 40.0636C6.74814 36.7873 5.90625 31.8321 5.90625 25.0938H3.90625ZM6.54092 40.9429C7.44959 42.7824 8.59519 44.2268 10.0061 45.2108C11.4263 46.2014 13.0616 46.6875 14.875 46.6875V44.6875C13.4384 44.6875 12.2092 44.309 11.1502 43.5704C10.0819 42.8253 9.13375 41.676 8.33408 40.0571L6.54092 40.9429ZM14.875 46.6875C16.696 46.6875 18.3361 46.2055 19.7572 45.2203C21.1696 44.2411 22.3112 42.8032 23.2102 40.9719L21.4148 40.0906C20.6263 41.6968 19.6845 42.837 18.6178 43.5766C17.5597 44.3101 16.3248 44.6875 14.875 44.6875V46.6875ZM23.208 40.9763C25.0197 37.3309 25.875 31.9991 25.875 25.0938H23.875C23.875 31.8967 23.022 36.8566 21.417 40.0862L23.208 40.9763ZM25.875 25.0938C25.875 18.2713 25.0402 12.9861 23.2748 9.34498L21.4752 10.2175C23.0431 13.4514 23.875 18.3745 23.875 25.0938H25.875ZM23.2758 9.34711C22.3881 7.50508 21.255 6.05767 19.8471 5.07156C18.4302 4.07909 16.7911 3.59375 14.9688 3.59375V5.59375C16.4173 5.59375 17.6479 5.97299 18.6997 6.70969C19.7606 7.45275 20.6952 8.59908 21.4742 10.2154L23.2758 9.34711ZM14.9688 3.59375C13.1077 3.59375 11.4357 4.08271 9.99223 5.08479C8.55716 6.08104 7.40457 7.54468 6.50548 9.40945L8.30702 10.278C9.09543 8.64282 10.047 7.48146 11.1328 6.72771C12.2101 5.97979 13.4756 5.59375 14.9688 5.59375V3.59375ZM6.50439 9.41172C4.742 13.0907 3.90625 18.3511 3.90625 25.0938H5.90625C5.90625 18.4614 6.73717 13.5551 8.30811 10.2758L6.50439 9.41172ZM39.625 28.0312V27.0312H38.625V28.0312H39.625ZM39.625 48V49H40.625V48H39.625ZM36.5625 48H35.5625V49H36.5625V48ZM36.5625 2.3125V1.3125H35.5625V2.3125H36.5625ZM48.3438 27.3125L47.9838 26.3795L47.0082 26.7559L47.4278 27.7138L48.3438 27.3125ZM57.4062 48V49H58.9361L58.3222 47.5987L57.4062 48ZM53.9688 48L53.0492 48.3929L53.3085 49H53.9688V48ZM45.4375 28.0312L46.3571 27.6384L46.0977 27.0312H45.4375V28.0312ZM39.625 25.2188H38.625V26.2188H39.625V25.2188ZM50.25 7.59375L49.5429 8.30087L49.5477 8.30565L50.25 7.59375ZM39.625 5.3125V4.3125H38.625V5.3125H39.625ZM38.625 28.0312V48H40.625V28.0312H38.625ZM39.625 47H36.5625V49H39.625V47ZM37.5625 48V2.3125H35.5625V48H37.5625ZM36.5625 3.3125H42.8125V1.3125H36.5625V3.3125ZM42.8125 3.3125C47.1383 3.3125 50.0829 4.33573 51.8796 6.16875L53.3079 4.76875C50.9796 2.39344 47.4033 1.3125 42.8125 1.3125V3.3125ZM51.8796 6.16875C53.6936 8.01943 54.6875 10.8696 54.6875 14.9062H56.6875C56.6875 10.5679 55.6189 7.1264 53.3079 4.76875L51.8796 6.16875ZM54.6875 14.9062C54.6875 17.962 54.1437 20.3858 53.1242 22.2361L54.8758 23.2014C56.1063 20.9683 56.6875 18.1838 56.6875 14.9062H54.6875ZM53.1242 22.2361C52.1359 24.0296 50.4594 25.4244 47.9838 26.3795L48.7037 28.2455C51.5197 27.159 53.6141 25.4912 54.8758 23.2014L53.1242 22.2361ZM47.4278 27.7138L56.4903 48.4013L58.3222 47.5987L49.2597 26.9112L47.4278 27.7138ZM57.4062 47H53.9688V49H57.4062V47ZM54.8883 47.6071L46.3571 27.6384L44.5179 28.4241L53.0492 48.3929L54.8883 47.6071ZM45.4375 27.0312H39.625V29.0312H45.4375V27.0312ZM39.625 26.2188H43.9062V24.2188H39.625V26.2188ZM43.9062 26.2188C46.8964 26.2188 49.3331 25.2873 51.0639 23.3161L49.5611 21.9964C48.2919 23.4419 46.4578 24.2188 43.9062 24.2188V26.2188ZM51.0639 23.3161C52.7863 21.3544 53.5625 18.5345 53.5625 15.0312H51.5625C51.5625 18.278 50.8387 20.5414 49.5611 21.9964L51.0639 23.3161ZM53.5625 15.0312C53.5625 11.4782 52.7707 8.67566 50.9523 6.88185L49.5477 8.30565C50.8127 9.55351 51.5625 11.7093 51.5625 15.0312H53.5625ZM50.9571 6.88664C49.1697 5.09923 46.4502 4.3125 43.0312 4.3125V6.3125C46.1956 6.3125 48.2886 7.0466 49.5429 8.30086L50.9571 6.88664ZM43.0312 4.3125H39.625V6.3125H43.0312V4.3125ZM38.625 5.3125V25.2188H40.625V5.3125H38.625Z" fill="#777580"/>
</svg>
