<svg width="1836" height="1026" viewBox="0 0 1836 1026" fill="none" xmlns="http://www.w3.org/2000/svg">
<g clip-path="url(#clip0_1_76)">
<g filter="url(#filter0_f_1_76)">
<path d="M977.243 580.99C1338 477.615 1612.76 332.07 1590.94 255.906C1569.11 179.743 1258.97 201.802 898.209 305.177C537.452 408.552 262.692 554.096 284.517 630.26C306.342 706.424 616.486 684.364 977.243 580.99Z" fill="#B07BF3" fill-opacity="0.72"/>
</g>
<path d="M1657.86 428.868C1657.86 428.868 1994.66 -94.2364 1403.36 307.626C607.889 848.292 -99.8982 603.347 -518.962 717.678C-1232.39 912.32 -449.168 1106.08 -395.155 1480.41C-303.157 2118.07 -1547.03 2413.14 -1784.6 2483.13C-2774.71 2775.29 -581.617 2711.88 -754.723 2827.94C-1006.01 2996.3 -1253.21 3163.87 -1253.21 3163.87" stroke="#B07BF3" stroke-width="1.5" stroke-miterlimit="10"/>
<path d="M1648.05 424.202C1648.05 424.202 1957.17 -87.9939 1371.37 309.345C589.887 839.79 -98.1921 627.567 -515.714 745.41C-1243.64 950.89 -509.539 1117.76 -464.844 1488.1C-388.45 2118.71 -1536.99 2391.66 -1772.6 2464.41C-2754.09 2767.11 -587.342 2678.67 -748.955 2799.31C-983.567 2974.44 -1266.98 3173.68 -1266.98 3173.68" stroke="#B07BF3" stroke-width="1.5" stroke-miterlimit="10"/>
<path d="M1638.29 419.537C1638.29 419.537 1919.74 -81.7866 1339.37 311.074C571.872 831.303 -96.5088 651.93 -512.465 773.172C-1254.95 989.638 -569.879 1129.42 -534.54 1495.77C-473.78 2119.39 -1526.96 2370.18 -1760.71 2445.65C-2733.66 2758.89 -593.227 2645.35 -743.258 2770.6C-961.269 2952.57 -1280.82 3183.42 -1280.82 3183.42" stroke="#B07BF3" stroke-width="1.5" stroke-miterlimit="10"/>
<path d="M1628.49 414.889C1628.49 414.889 1882.3 -75.5767 1307.34 312.747C553.863 822.742 -94.7596 676.308 -509.261 800.836C-1266.24 1028.33 -630.31 1141.01 -604.229 1503.45C-558.894 2120.18 -1516.9 2348.75 -1748.74 2426.95C-2712.95 2750.67 -599.012 2612.17 -737.511 2741.99C-938.952 2930.82 -1294.62 3193.26 -1294.62 3193.26" stroke="#B07BF3" stroke-width="1.5" stroke-miterlimit="10"/>
<path d="M1618.7 410.207C1618.7 410.207 1844.85 -69.365 1275.36 314.487C535.874 814.263 -92.8857 700.827 -505.978 828.668C-1277.53 1067.44 -690.6 1152.77 -673.821 1511.25C-644.202 2120.79 -1506.81 2327.38 -1736.81 2408.19C-2692.28 2742.47 -604.985 2579.03 -731.808 2713.3C-916.715 2909.1 -1308.43 3203.01 -1308.43 3203.01" stroke="#B07BF3" stroke-width="1.5" stroke-miterlimit="10"/>
<path d="M1608.91 405.558C1608.91 405.558 1807.53 -63.1947 1243.34 316.197C517.845 805.755 -91.2148 725.516 -502.729 856.433C-1288.8 1106.5 -750.94 1164.43 -743.474 1518.96C-729.486 2121.45 -1496.73 2305.9 -1724.87 2389.45C-2671.8 2734.19 -610.911 2545.91 -726.082 2684.65C-894.511 2887.47 -1322.22 3212.79 -1322.22 3212.79" stroke="#B07BF3" stroke-width="1.5" stroke-miterlimit="10"/>
<path d="M1599.14 400.895C1599.14 400.895 1769.98 -56.9457 1211.32 317.871C499.84 797.195 -89.4521 750.203 -499.491 884.141C-1300.08 1145.64 -811.338 1176.06 -813.175 1526.64C-814.812 2122.06 -1486.59 2284.35 -1712.98 2370.62C-2651.27 2725.9 -616.867 2512.79 -720.436 2655.9C-872.423 2865.92 -1336.11 3222.45 -1336.11 3222.45" stroke="#B07BF3" stroke-width="1.5" stroke-miterlimit="10"/>
<path d="M1589.33 396.227C1589.33 396.227 1732.47 -50.6878 1179.34 319.61C481.866 788.737 -87.628 775.037 -496.236 911.927C-1311.27 1184.99 -871.658 1187.77 -882.819 1534.39C-900.045 2122.81 -1476.56 2263.11 -1701.02 2351.92C-2630.68 2717.71 -622.77 2479.86 -714.673 2627.29C-850.106 2844.53 -1349.9 3232.32 -1349.9 3232.32" stroke="#B07BF3" stroke-width="1.5" stroke-miterlimit="10"/>
<path d="M1579.54 391.543C1579.54 391.543 1695.13 -44.5397 1147.36 321.328C463.794 780.127 -85.852 799.843 -492.971 939.679C-1322.49 1224.43 -932.027 1199.45 -952.469 1542.09C-985.321 2123.46 -1466.56 2241.59 -1689.13 2333.21C-2610.15 2709.51 -628.721 2447.01 -708.99 2598.64C-828.016 2823.33 -1363.75 3242.09 -1363.75 3242.09" stroke="#B07BF3" stroke-width="1.5" stroke-miterlimit="10"/>
<path d="M1569.76 386.92C1569.76 386.92 1657.69 -38.3278 1115.33 323.04C445.851 771.712 -83.9983 824.817 -489.744 967.424C-1333.67 1263.98 -992.375 1211.12 -1022.14 1549.8C-1070.49 2124.08 -1456.52 2220.13 -1677.16 2314.42C-2589.54 2701.25 -634.529 2414.11 -703.309 2569.97C-805.637 2802.03 -1377.61 3251.87 -1377.61 3251.87" stroke="#B07BF3" stroke-width="1.5" stroke-miterlimit="10"/>
<path d="M1559.98 382.232C1559.98 382.232 1620.26 -32.1206 1083.31 324.71C427.889 763.252 -82.1435 849.824 -486.614 995.206C-1344.94 1303.67 -1052.83 1222.8 -1091.93 1557.54C-1155.96 2124.85 -1446.58 2198.71 -1665.34 2295.68C-2569.07 2693.03 -640.454 2381.34 -697.634 2541.28C-783.317 2780.85 -1391.48 3261.62 -1391.48 3261.62" stroke="#B07BF3" stroke-width="1.5" stroke-miterlimit="10"/>
<path d="M1550.19 377.587C1550.19 377.587 1582.82 -25.9086 1051.34 326.45C409.848 754.688 -80.2591 874.939 -483.228 1022.94C-1355.94 1343.44 -1113.76 1234.38 -1161.43 1565.3C-1242.25 2125.37 -1436.33 2177.21 -1653.3 2276.9C-2548.4 2684.76 -646.076 2348.57 -691.808 2512.59C-760.742 2759.72 -1405.17 3271.38 -1405.17 3271.38" stroke="#B07BF3" stroke-width="1.5" stroke-miterlimit="10"/>
<path d="M1540.4 372.903C1540.4 372.903 1545.38 -19.6991 1019.35 328.166C391.848 746.186 -78.3614 900.071 -479.999 1050.68C-1367.04 1383.33 -1174.15 1246.04 -1231.13 1572.93C-1327.56 2126.03 -1426.34 2155.82 -1641.36 2258.13C-2527.91 2676.59 -651.744 2315.82 -686.087 2483.94C-738.17 2738.7 -1418.99 3281.15 -1418.99 3281.15" stroke="#B07BF3" stroke-width="1.5" stroke-miterlimit="10"/>
<path d="M1530.6 368.256C1530.6 368.256 1507.94 -13.4871 987.366 329.944C373.894 737.653 -76.4575 925.265 -476.735 1078.43C-1378.08 1423.35 -1234.51 1257.68 -1300.75 1580.67C-1412.81 2126.66 -1416.25 2134.38 -1629.38 2239.42C-2507.19 2668.3 -657.31 2283.16 -680.344 2455.25C-715.441 2717.66 -1432.76 3290.91 -1432.76 3290.91" stroke="#B07BF3" stroke-width="1.5" stroke-miterlimit="10"/>
<path d="M1520.83 363.592C1520.83 363.592 1470.5 -7.27977 955.334 331.592C355.897 729.244 -74.5221 950.498 -473.489 1106.2C-1389.08 1463.49 -1294.87 1269.32 -1370.47 1588.36C-1498.15 2127.28 -1406.16 2112.99 -1617.48 2220.65C-2486.7 2660.08 -662.938 2250.33 -674.652 2426.56C-692.711 2696.64 -1446.63 3300.66 -1446.63 3300.66" stroke="#B07BF3" stroke-width="1.5" stroke-miterlimit="10"/>
<path d="M1511.02 358.925C1511.02 358.925 1432.43 -2.00157 923.225 333.39C336.981 719.592 -72.7005 975.871 -470.357 1134.01C-1400.17 1503.82 -1355.34 1281.05 -1440.26 1596.14C-1583.52 2128 -1396.28 2091.55 -1605.68 2201.96C-2466.25 2651.91 -668.488 2217.74 -669.064 2397.95C-669.963 2675.58 -1460.59 3310.5 -1460.59 3310.5" stroke="#B07BF3" stroke-width="1.5" stroke-miterlimit="10"/>
<path d="M1501.25 354.261C1501.25 354.261 1394.93 4.12022 891.335 335.007C319.081 710.991 -70.6315 1001.11 -467.001 1161.69C-1410.97 1544.13 -1415.59 1292.61 -1509.78 1603.79C-1668.67 2128.55 -1386.11 2070.03 -1593.65 2183.11C-2445.62 2643.51 -673.801 2184.88 -663.245 2369.2C-646.918 2654.43 -1474.36 3320.08 -1474.36 3320.08" stroke="#B07BF3" stroke-width="1.5" stroke-miterlimit="10"/>
<path d="M1491.45 349.614C1491.45 349.614 1357.52 10.3757 859.277 336.675C301.014 702.44 -68.6775 1026.43 -463.818 1189.37C-1421.88 1584.52 -1475.98 1304.21 -1579.5 1611.44C-1753.97 2129.12 -1376.11 2048.5 -1581.76 2164.28C-2425.02 2635.31 -679.187 2152.09 -657.539 2340.53C-623.912 2633.27 -1488.12 3329.94 -1488.12 3329.94" stroke="#B07BF3" stroke-width="1.5" stroke-miterlimit="10"/>
<path d="M1481.67 344.93C1481.67 344.93 1320.15 16.6139 827.21 338.512C282.975 694.065 -66.7497 1051.99 -460.57 1217.24C-1432.64 1625.16 -1536.21 1315.99 -1649.12 1619.22C-1839.25 2129.93 -1366 2027.13 -1569.78 2145.6C-2404.44 2627.09 -684.541 2119.28 -651.827 2311.83C-600.829 2612.06 -1502 3339.59 -1502 3339.59" stroke="#B07BF3" stroke-width="1.5" stroke-miterlimit="10"/>
<path d="M1471.87 340.284C1471.87 340.284 1282.64 22.7383 795.326 340.154C265.084 685.486 -64.6364 1077.35 -457.265 1244.96C-1443.4 1665.86 -1596.59 1327.57 -1718.79 1626.91C-1924.37 2130.48 -1355.95 2005.69 -1557.89 2126.77C-2383.94 2618.83 -689.921 2086.33 -646.098 2283.21C-577.711 2590.82 -1515.83 3349.39 -1515.83 3349.39" stroke="#B07BF3" stroke-width="1.5" stroke-miterlimit="10"/>
<path d="M1462.1 335.621C1462.1 335.621 1245.24 28.9542 763.301 341.864C247.122 677.086 -62.6006 1102.84 -453.953 1272.77C-1454.12 1706.68 -1656.85 1339.32 -1788.38 1634.72C-2009.5 2131.27 -1345.83 1984.35 -1545.86 2108.19C-2363.23 2610.72 -695.102 2053.59 -640.347 2254.6C-554.506 2569.56 -1529.59 3359.21 -1529.59 3359.21" stroke="#B07BF3" stroke-width="1.5" stroke-miterlimit="10"/>
<path d="M1452.29 330.953C1452.29 330.953 1207.81 35.2231 731.31 343.58C229.131 668.549 -60.5363 1128.36 -450.77 1300.45C-1464.77 1747.6 -1717.22 1350.89 -1858.14 1642.28C-2094.8 2131.77 -1335.88 1962.76 -1534.02 2089.27C-2342.67 2602.28 -700.549 2020.45 -634.751 2225.72C-531.397 2548.12 -1543.53 3368.92 -1543.53 3368.92" stroke="#B07BF3" stroke-width="1.5" stroke-miterlimit="10"/>
<path d="M1442.52 326.288C1442.52 326.288 1170.39 41.4545 699.311 345.274C211.18 660.11 -58.4977 1153.94 -447.522 1328.23C-1475.37 1788.65 -1776.98 1362.84 -1927.78 1650.04C-2179.01 2132.93 -1325.78 1941.36 -1522.06 2070.55C-2322.15 2594.15 -705.746 1987.63 -628.966 2197.13C-508.193 2526.68 -1557.32 3378.65 -1557.32 3378.65" stroke="#B07BF3" stroke-width="1.5" stroke-miterlimit="10"/>
<path d="M1432.64 321.703C1432.64 321.703 1132.91 47.7913 667.228 347.052C193.134 651.735 -56.4517 1179.54 -444.363 1356C-1485.81 1829.73 -1837.32 1374.5 -1997.48 1657.78C-2264.33 2133.61 -1315.78 1919.95 -1510.17 2051.83C-2301.64 2585.95 -711.076 1954.67 -623.294 2168.51C-485.071 2505.27 -1571.18 3388.42 -1571.18 3388.42" stroke="#B07BF3" stroke-width="1.5" stroke-miterlimit="10"/>
<path d="M1422.89 317.023C1422.89 317.023 1096.08 54.9106 635.178 348.68C175.673 644.037 -54.3456 1205.13 -441.157 1383.66C-1496.49 1871 -1897.82 1386.14 -2067.23 1665.4C-2349.68 2134.23 -1305.78 1898.42 -1498.32 2033.01C-2281.14 2577.62 -716.436 1921.55 -617.671 2139.75C-461.975 2483.7 -1585.1 3398.11 -1585.1 3398.11" stroke="#B07BF3" stroke-width="1.5" stroke-miterlimit="10"/>
<path d="M1413.12 312.324C1413.12 312.324 1058.69 61.0545 603.299 350.419C157.831 635.618 -52.1252 1230.75 -437.779 1411.43C-1506.78 1912.41 -1958.04 1397.84 -2136.78 1673.16C-2434.84 2134.97 -1295.61 1877.01 -1486.26 2014.31C-2260.43 2569.43 -721.591 1888.6 -611.839 2111.12C-438.662 2462.2 -1598.78 3407.91 -1598.78 3407.91" stroke="#B07BF3" stroke-width="1.5" stroke-miterlimit="10"/>
<path d="M1403.36 307.624C1403.36 307.624 1021.26 67.2639 571.313 352.132C139.859 627.1 -49.969 1256.4 -434.533 1439.2C-1517.09 1953.92 -2018.41 1409.52 -2206.43 1680.9C-2520.08 2135.56 -1285.55 1855.57 -1474.34 1995.52C-2239.92 2561.12 -726.884 1855.48 -606.098 2082.48C-415.516 2440.61 -1612.61 3417.73 -1612.61 3417.73" stroke="#B07BF3" stroke-width="1.5" stroke-miterlimit="10"/>
<path d="M1393.61 302.947C1393.61 302.947 983.924 73.5308 539.353 353.801C121.792 618.552 -47.8036 1282.08 -431.291 1466.97C-1527.41 1995.44 -2078.75 1421.18 -2276.08 1688.59C-2605.37 2136.31 -1275.49 1834.14 -1462.41 1976.78C-2219.3 2552.96 -732.189 1822.41 -600.386 2053.76C-392.295 2419.08 -1626.5 3427.31 -1626.5 3427.31" stroke="#B07BF3" stroke-width="1.5" stroke-miterlimit="10"/>
<path d="M1383.87 298.269C1383.87 298.269 946.338 79.714 507.365 355.517C103.848 609.982 -45.5523 1307.74 -428.027 1494.57C-1537.61 2036.97 -2139.09 1432.71 -2345.74 1696.18C-2690.63 2136.83 -1265.42 1812.55 -1450.39 1957.85C-2198.66 2544.55 -736.925 1788.85 -594.602 2024.92C-368.281 2396.86 -1640.18 3437.02 -1640.18 3437.02" stroke="#B07BF3" stroke-width="1.5" stroke-miterlimit="10"/>
<path d="M1373.99 293.646C1373.99 293.646 908.874 85.7876 475.295 357.257C85.806 601.51 -43.1681 1334.03 -424.816 1522.47C-1547.02 2080.5 -2199.49 1444.55 -2415.44 1704.05C-2775.92 2137.67 -1255.47 1791.15 -1438.54 1939.28C-2178.18 2536.5 -742.583 1756.08 -588.993 1996.42C-345.637 2375.6 -1654.11 3446.97 -1654.11 3446.97" stroke="#B07BF3" stroke-width="1.5" stroke-miterlimit="10"/>
<path d="M1364.22 288.984C1364.22 288.984 871.507 92.1047 443.303 358.976C67.8113 593.069 -41.2138 1359.24 -421.528 1550.22C-1557.84 2120.77 -2259.82 1456.19 -2485.03 1711.83C-2861.1 2138.43 -1245.34 1769.91 -1426.52 1920.58C-2157.54 2528.33 -748.154 1723.25 -583.3 1967.88C-322.874 2354.31 -1667.94 3456.85 -1667.94 3456.85" stroke="#B07BF3" stroke-width="1.5" stroke-miterlimit="10"/>
<path d="M1657.86 428.868C1657.86 428.868 1994.66 -94.2364 1403.36 307.626C607.889 848.292 -99.8982 603.347 -518.962 717.678C-1232.39 912.32 -449.168 1106.08 -395.155 1480.41C-303.157 2118.07 -1547.03 2413.14 -1784.6 2483.13C-2774.71 2775.29 -581.617 2711.88 -754.723 2827.94C-1006.01 2996.3 -1253.21 3163.87 -1253.21 3163.87" stroke="#B07BF3" stroke-width="1.5" stroke-miterlimit="10"/>
<path d="M1648.05 424.202C1648.05 424.202 1957.17 -87.9939 1371.37 309.345C589.887 839.79 -98.1921 627.567 -515.714 745.41C-1243.64 950.89 -509.539 1117.76 -464.844 1488.1C-388.45 2118.71 -1536.99 2391.66 -1772.6 2464.41C-2754.09 2767.11 -587.342 2678.67 -748.955 2799.31C-983.567 2974.44 -1266.98 3173.68 -1266.98 3173.68" stroke="#B07BF3" stroke-width="1.5" stroke-miterlimit="10"/>
<path d="M1638.29 419.537C1638.29 419.537 1919.74 -81.7866 1339.37 311.074C571.872 831.303 -96.5088 651.93 -512.465 773.172C-1254.95 989.638 -569.879 1129.42 -534.54 1495.77C-473.78 2119.39 -1526.96 2370.18 -1760.71 2445.65C-2733.66 2758.89 -593.227 2645.35 -743.258 2770.6C-961.269 2952.57 -1280.82 3183.42 -1280.82 3183.42" stroke="#B07BF3" stroke-width="1.5" stroke-miterlimit="10"/>
<path d="M1628.49 414.889C1628.49 414.889 1882.3 -75.5767 1307.34 312.747C553.863 822.742 -94.7596 676.308 -509.261 800.836C-1266.24 1028.33 -630.31 1141.01 -604.229 1503.45C-558.894 2120.18 -1516.9 2348.75 -1748.74 2426.95C-2712.95 2750.67 -599.012 2612.17 -737.511 2741.99C-938.952 2930.82 -1294.62 3193.26 -1294.62 3193.26" stroke="#B07BF3" stroke-width="1.5" stroke-miterlimit="10"/>
<path d="M1618.7 410.207C1618.7 410.207 1844.85 -69.365 1275.36 314.487C535.874 814.263 -92.8857 700.827 -505.978 828.668C-1277.53 1067.44 -690.6 1152.77 -673.821 1511.25C-644.202 2120.79 -1506.81 2327.38 -1736.81 2408.19C-2692.28 2742.47 -604.985 2579.03 -731.808 2713.3C-916.715 2909.1 -1308.43 3203.01 -1308.43 3203.01" stroke="#B07BF3" stroke-width="1.5" stroke-miterlimit="10"/>
<path d="M1608.91 405.558C1608.91 405.558 1807.53 -63.1947 1243.34 316.197C517.845 805.755 -91.2148 725.516 -502.729 856.433C-1288.8 1106.5 -750.94 1164.43 -743.474 1518.96C-729.486 2121.45 -1496.73 2305.9 -1724.87 2389.45C-2671.8 2734.19 -610.911 2545.91 -726.082 2684.65C-894.511 2887.47 -1322.22 3212.79 -1322.22 3212.79" stroke="#B07BF3" stroke-width="1.5" stroke-miterlimit="10"/>
<path d="M1599.14 400.895C1599.14 400.895 1769.98 -56.9457 1211.32 317.871C499.84 797.195 -89.4521 750.203 -499.491 884.141C-1300.08 1145.64 -811.338 1176.06 -813.175 1526.64C-814.812 2122.06 -1486.59 2284.35 -1712.98 2370.62C-2651.27 2725.9 -616.867 2512.79 -720.436 2655.9C-872.423 2865.92 -1336.11 3222.45 -1336.11 3222.45" stroke="#B07BF3" stroke-width="1.5" stroke-miterlimit="10"/>
<path d="M1589.33 396.227C1589.33 396.227 1732.47 -50.6878 1179.34 319.61C481.866 788.737 -87.628 775.037 -496.236 911.927C-1311.27 1184.99 -871.658 1187.77 -882.819 1534.39C-900.045 2122.81 -1476.56 2263.11 -1701.02 2351.92C-2630.68 2717.71 -622.77 2479.86 -714.673 2627.29C-850.106 2844.53 -1349.9 3232.32 -1349.9 3232.32" stroke="#B07BF3" stroke-width="1.5" stroke-miterlimit="10"/>
<path d="M1579.54 391.543C1579.54 391.543 1695.13 -44.5397 1147.36 321.328C463.794 780.127 -85.852 799.843 -492.971 939.679C-1322.49 1224.43 -932.027 1199.45 -952.469 1542.09C-985.321 2123.46 -1466.56 2241.59 -1689.13 2333.21C-2610.15 2709.51 -628.721 2447.01 -708.99 2598.64C-828.016 2823.33 -1363.75 3242.09 -1363.75 3242.09" stroke="#B07BF3" stroke-width="1.5" stroke-miterlimit="10"/>
<path d="M1569.76 386.92C1569.76 386.92 1657.69 -38.3278 1115.33 323.04C445.851 771.712 -83.9983 824.817 -489.744 967.424C-1333.67 1263.98 -992.375 1211.12 -1022.14 1549.8C-1070.49 2124.08 -1456.52 2220.13 -1677.16 2314.42C-2589.54 2701.25 -634.529 2414.11 -703.309 2569.97C-805.637 2802.03 -1377.61 3251.87 -1377.61 3251.87" stroke="#B07BF3" stroke-width="1.5" stroke-miterlimit="10"/>
<path d="M1559.98 382.232C1559.98 382.232 1620.26 -32.1206 1083.31 324.71C427.889 763.252 -82.1435 849.824 -486.614 995.206C-1344.94 1303.67 -1052.83 1222.8 -1091.93 1557.54C-1155.96 2124.85 -1446.58 2198.71 -1665.34 2295.68C-2569.07 2693.03 -640.454 2381.34 -697.634 2541.28C-783.317 2780.85 -1391.48 3261.62 -1391.48 3261.62" stroke="#B07BF3" stroke-width="1.5" stroke-miterlimit="10"/>
<path d="M1550.19 377.587C1550.19 377.587 1582.82 -25.9086 1051.34 326.45C409.848 754.688 -80.2591 874.939 -483.228 1022.94C-1355.94 1343.44 -1113.76 1234.38 -1161.43 1565.3C-1242.25 2125.37 -1436.33 2177.21 -1653.3 2276.9C-2548.4 2684.76 -646.076 2348.57 -691.808 2512.59C-760.742 2759.72 -1405.17 3271.38 -1405.17 3271.38" stroke="#B07BF3" stroke-width="1.5" stroke-miterlimit="10"/>
<path d="M1540.4 372.903C1540.4 372.903 1545.38 -19.6991 1019.35 328.166C391.848 746.186 -78.3614 900.071 -479.999 1050.68C-1367.04 1383.33 -1174.15 1246.04 -1231.13 1572.93C-1327.56 2126.03 -1426.34 2155.82 -1641.36 2258.13C-2527.91 2676.59 -651.744 2315.82 -686.087 2483.94C-738.17 2738.7 -1418.99 3281.15 -1418.99 3281.15" stroke="#B07BF3" stroke-width="1.5" stroke-miterlimit="10"/>
<path d="M1530.6 368.256C1530.6 368.256 1507.94 -13.4871 987.366 329.944C373.894 737.653 -76.4575 925.265 -476.735 1078.43C-1378.08 1423.35 -1234.51 1257.68 -1300.75 1580.67C-1412.81 2126.66 -1416.25 2134.38 -1629.38 2239.42C-2507.19 2668.3 -657.31 2283.16 -680.344 2455.25C-715.441 2717.66 -1432.76 3290.91 -1432.76 3290.91" stroke="#B07BF3" stroke-width="1.5" stroke-miterlimit="10"/>
<path d="M1520.83 363.592C1520.83 363.592 1470.5 -7.27977 955.334 331.592C355.897 729.244 -74.5221 950.498 -473.489 1106.2C-1389.08 1463.49 -1294.87 1269.32 -1370.47 1588.36C-1498.15 2127.28 -1406.16 2112.99 -1617.48 2220.65C-2486.7 2660.08 -662.938 2250.33 -674.652 2426.56C-692.711 2696.64 -1446.63 3300.66 -1446.63 3300.66" stroke="#B07BF3" stroke-width="1.5" stroke-miterlimit="10"/>
<path d="M1511.02 358.925C1511.02 358.925 1432.43 -2.00157 923.225 333.39C336.981 719.592 -72.7005 975.871 -470.357 1134.01C-1400.17 1503.82 -1355.34 1281.05 -1440.26 1596.14C-1583.52 2128 -1396.28 2091.55 -1605.68 2201.96C-2466.25 2651.91 -668.488 2217.74 -669.064 2397.95C-669.963 2675.58 -1460.59 3310.5 -1460.59 3310.5" stroke="#B07BF3" stroke-width="1.5" stroke-miterlimit="10"/>
<path d="M1501.25 354.261C1501.25 354.261 1394.93 4.12022 891.335 335.007C319.081 710.991 -70.6315 1001.11 -467.001 1161.69C-1410.97 1544.13 -1415.59 1292.61 -1509.78 1603.79C-1668.67 2128.55 -1386.11 2070.03 -1593.65 2183.11C-2445.62 2643.51 -673.801 2184.88 -663.245 2369.2C-646.918 2654.43 -1474.36 3320.08 -1474.36 3320.08" stroke="#B07BF3" stroke-width="1.5" stroke-miterlimit="10"/>
<path d="M1491.45 349.614C1491.45 349.614 1357.52 10.3757 859.277 336.675C301.014 702.44 -68.6775 1026.43 -463.818 1189.37C-1421.88 1584.52 -1475.98 1304.21 -1579.5 1611.44C-1753.97 2129.12 -1376.11 2048.5 -1581.76 2164.28C-2425.02 2635.31 -679.187 2152.09 -657.539 2340.53C-623.912 2633.27 -1488.12 3329.94 -1488.12 3329.94" stroke="#B07BF3" stroke-width="1.5" stroke-miterlimit="10"/>
<path d="M1481.67 344.93C1481.67 344.93 1320.15 16.6139 827.21 338.512C282.975 694.065 -66.7497 1051.99 -460.57 1217.24C-1432.64 1625.16 -1536.21 1315.99 -1649.12 1619.22C-1839.25 2129.93 -1366 2027.13 -1569.78 2145.6C-2404.44 2627.09 -684.541 2119.28 -651.827 2311.83C-600.829 2612.06 -1502 3339.59 -1502 3339.59" stroke="#B07BF3" stroke-width="1.5" stroke-miterlimit="10"/>
<path d="M1471.87 340.284C1471.87 340.284 1282.64 22.7383 795.326 340.154C265.084 685.486 -64.6364 1077.35 -457.265 1244.96C-1443.4 1665.86 -1596.59 1327.57 -1718.79 1626.91C-1924.37 2130.48 -1355.95 2005.69 -1557.89 2126.77C-2383.94 2618.83 -689.921 2086.33 -646.098 2283.21C-577.711 2590.82 -1515.83 3349.39 -1515.83 3349.39" stroke="#B07BF3" stroke-width="1.5" stroke-miterlimit="10"/>
<path d="M1462.1 335.621C1462.1 335.621 1245.24 28.9542 763.301 341.864C247.122 677.086 -62.6006 1102.84 -453.953 1272.77C-1454.12 1706.68 -1656.85 1339.32 -1788.38 1634.72C-2009.5 2131.27 -1345.83 1984.35 -1545.86 2108.19C-2363.23 2610.72 -695.102 2053.59 -640.347 2254.6C-554.506 2569.56 -1529.59 3359.21 -1529.59 3359.21" stroke="#B07BF3" stroke-width="1.5" stroke-miterlimit="10"/>
<path d="M1452.29 330.953C1452.29 330.953 1207.81 35.2231 731.31 343.58C229.131 668.549 -60.5363 1128.36 -450.77 1300.45C-1464.77 1747.6 -1717.22 1350.89 -1858.14 1642.28C-2094.8 2131.77 -1335.88 1962.76 -1534.02 2089.27C-2342.67 2602.28 -700.549 2020.45 -634.751 2225.72C-531.397 2548.12 -1543.53 3368.92 -1543.53 3368.92" stroke="#B07BF3" stroke-width="1.5" stroke-miterlimit="10"/>
<path d="M1442.52 326.288C1442.52 326.288 1170.39 41.4545 699.311 345.274C211.18 660.11 -58.4977 1153.94 -447.522 1328.23C-1475.37 1788.65 -1776.98 1362.84 -1927.78 1650.04C-2179.01 2132.93 -1325.78 1941.36 -1522.06 2070.55C-2322.15 2594.15 -705.746 1987.63 -628.966 2197.13C-508.193 2526.68 -1557.32 3378.65 -1557.32 3378.65" stroke="#B07BF3" stroke-width="1.5" stroke-miterlimit="10"/>
<path d="M1432.64 321.703C1432.64 321.703 1132.91 47.7913 667.228 347.052C193.134 651.735 -56.4517 1179.54 -444.363 1356C-1485.81 1829.73 -1837.32 1374.5 -1997.48 1657.78C-2264.33 2133.61 -1315.78 1919.95 -1510.17 2051.83C-2301.64 2585.95 -711.076 1954.67 -623.294 2168.51C-485.071 2505.27 -1571.18 3388.42 -1571.18 3388.42" stroke="#B07BF3" stroke-width="1.5" stroke-miterlimit="10"/>
<path d="M1422.89 317.023C1422.89 317.023 1096.08 54.9106 635.178 348.68C175.673 644.037 -54.3456 1205.13 -441.157 1383.66C-1496.49 1871 -1897.82 1386.14 -2067.23 1665.4C-2349.68 2134.23 -1305.78 1898.42 -1498.32 2033.01C-2281.14 2577.62 -716.436 1921.55 -617.671 2139.75C-461.975 2483.7 -1585.1 3398.11 -1585.1 3398.11" stroke="#B07BF3" stroke-width="1.5" stroke-miterlimit="10"/>
<path d="M1413.12 312.324C1413.12 312.324 1058.69 61.0545 603.299 350.419C157.831 635.618 -52.1252 1230.75 -437.779 1411.43C-1506.78 1912.41 -1958.04 1397.84 -2136.78 1673.16C-2434.84 2134.97 -1295.61 1877.01 -1486.26 2014.31C-2260.43 2569.43 -721.591 1888.6 -611.839 2111.12C-438.662 2462.2 -1598.78 3407.91 -1598.78 3407.91" stroke="#B07BF3" stroke-width="1.5" stroke-miterlimit="10"/>
<path d="M1403.36 307.624C1403.36 307.624 1021.26 67.2639 571.313 352.132C139.859 627.1 -49.969 1256.4 -434.533 1439.2C-1517.09 1953.92 -2018.41 1409.52 -2206.43 1680.9C-2520.08 2135.56 -1285.55 1855.57 -1474.34 1995.52C-2239.92 2561.12 -726.884 1855.48 -606.098 2082.48C-415.516 2440.61 -1612.61 3417.73 -1612.61 3417.73" stroke="#B07BF3" stroke-width="1.5" stroke-miterlimit="10"/>
<path d="M1393.61 302.947C1393.61 302.947 983.924 73.5308 539.353 353.801C121.792 618.552 -47.8036 1282.08 -431.291 1466.97C-1527.41 1995.44 -2078.75 1421.18 -2276.08 1688.59C-2605.37 2136.31 -1275.49 1834.14 -1462.41 1976.78C-2219.3 2552.96 -732.189 1822.41 -600.386 2053.76C-392.295 2419.08 -1626.5 3427.31 -1626.5 3427.31" stroke="#B07BF3" stroke-width="1.5" stroke-miterlimit="10"/>
<path d="M1383.87 298.269C1383.87 298.269 946.338 79.714 507.365 355.517C103.848 609.982 -45.5523 1307.74 -428.027 1494.57C-1537.61 2036.97 -2139.09 1432.71 -2345.74 1696.18C-2690.63 2136.83 -1265.42 1812.55 -1450.39 1957.85C-2198.66 2544.55 -736.925 1788.85 -594.602 2024.92C-368.281 2396.86 -1640.18 3437.02 -1640.18 3437.02" stroke="#B07BF3" stroke-width="1.5" stroke-miterlimit="10"/>
<path d="M1373.99 293.646C1373.99 293.646 908.874 85.7876 475.295 357.257C85.806 601.51 -43.1681 1334.03 -424.816 1522.47C-1547.02 2080.5 -2199.49 1444.55 -2415.44 1704.05C-2775.92 2137.67 -1255.47 1791.15 -1438.54 1939.28C-2178.18 2536.5 -742.583 1756.08 -588.993 1996.42C-345.637 2375.6 -1654.11 3446.97 -1654.11 3446.97" stroke="#B07BF3" stroke-width="1.5" stroke-miterlimit="10"/>
<path d="M1364.22 288.984C1364.22 288.984 871.507 92.1047 443.303 358.976C67.8113 593.069 -41.2138 1359.24 -421.528 1550.22C-1557.84 2120.77 -2259.82 1456.19 -2485.03 1711.83C-2861.1 2138.43 -1245.34 1769.91 -1426.52 1920.58C-2157.54 2528.33 -748.154 1723.25 -583.3 1967.88C-322.874 2354.31 -1667.94 3456.85 -1667.94 3456.85" stroke="#B07BF3" stroke-width="1.5" stroke-miterlimit="10"/>
</g>
<defs>
<filter id="filter0_f_1_76" x="50.3018" y="-22.4258" width="1774.85" height="931.018" filterUnits="userSpaceOnUse" color-interpolation-filters="sRGB">
<feFlood flood-opacity="0" result="BackgroundImageFix"/>
<feBlend mode="normal" in="SourceGraphic" in2="BackgroundImageFix" result="shape"/>
<feGaussianBlur stdDeviation="116.5" result="effect1_foregroundBlur_1_76"/>
</filter>
<clipPath id="clip0_1_76">
<rect width="1836" height="1026" fill="white"/>
</clipPath>
</defs>
</svg>
