<svg width="609" height="594" viewBox="0 0 609 594" fill="none" xmlns="http://www.w3.org/2000/svg">
<g clip-path="url(#clip0_5_2)">
<path d="M-107.75 230.635C-107.75 230.635 265.915 131.298 302.372 202.656C338.828 274.014 287.943 228.401 373.036 262.02C569.51 339.622 535.752 547.565 205.749 426.362C148.514 405.343 -22.0865 659.698 3.01361 350.395C26.997 54.8321 -141.71 160.843 -141.71 160.843" stroke="#B07BF3" stroke-width="1.5" stroke-miterlimit="10"/>
<path d="M-104.827 222.389C-104.827 222.389 254.597 128.279 290.873 199.327C327.148 270.375 280.166 227.693 365.024 260.666C558.331 335.784 527.267 546.199 203.906 423.399C143.175 400.296 -24.085 653.156 0.0622406 348.912C22.9938 55.692 -141.616 160.349 -141.616 160.349" stroke="#B07BF3" stroke-width="1.5" stroke-miterlimit="10"/>
<path d="M-101.896 214.134C-101.896 214.134 243.252 125.317 279.347 196.021C315.441 266.725 272.33 226.986 357.008 259.339C547.139 332.002 518.878 544.405 202.105 420.485C137.84 395.317 -26.0292 646.661 -2.87003 347.507C18.9934 56.5511 -141.501 159.844 -141.501 159.844" stroke="#B07BF3" stroke-width="1.5" stroke-miterlimit="10"/>
<path d="M-98.9743 205.885C-98.9743 205.885 231.915 122.318 267.854 192.66C303.792 263.002 264.522 226.231 349.019 257.965C535.972 328.194 510.627 542.149 200.301 417.514C132.486 390.27 -27.9646 640.161 -5.77202 346C14.9804 57.403 -141.414 159.355 -141.414 159.355" stroke="#B07BF3" stroke-width="1.5" stroke-miterlimit="10"/>
<path d="M-96.0528 197.625C-96.0528 197.625 220.59 119.327 256.35 189.338C292.11 259.349 256.688 225.503 341.011 256.624C524.775 324.433 502.476 539.584 198.49 414.561C127.127 385.219 -29.2775 633.709 -8.71416 344.556C11.66 58.339 -141.302 158.838 -141.302 158.838" stroke="#B07BF3" stroke-width="1.5" stroke-miterlimit="10"/>
<path d="M-93.1072 189.395C-93.1072 189.395 209.248 116.337 244.841 186.002C280.434 255.666 248.867 224.787 333.007 255.274C513.565 320.688 494.381 536.763 196.643 411.653C121.757 380.128 -31.0889 627.207 -11.6321 343.073C7.81139 59.216 -141.199 158.328 -141.199 158.328" stroke="#B07BF3" stroke-width="1.5" stroke-miterlimit="10"/>
<path d="M-90.2069 181.13C-90.2069 181.13 197.918 113.351 233.33 182.672C268.742 251.992 241.027 224.065 325.005 253.924C502.35 316.97 486.421 533.632 194.829 408.65C116.429 375.016 -32.9107 620.705 -14.5578 341.604C3.95784 60.086 -141.096 157.837 -141.096 157.837" stroke="#B07BF3" stroke-width="1.5" stroke-miterlimit="10"/>
<path d="M-87.2872 172.87C-87.2872 172.87 186.612 110.398 221.83 179.342C257.048 248.285 233.193 223.351 316.993 252.569C491.116 313.277 478.494 530.333 193.064 405.73C111.076 369.937 -34.7264 614.211 -17.4585 340.168C0.126471 60.9751 -140.984 157.367 -140.984 157.367" stroke="#B07BF3" stroke-width="1.5" stroke-miterlimit="10"/>
<path d="M-84.365 164.621C-84.365 164.621 175.274 107.385 210.316 176.011C245.359 244.637 225.341 222.644 308.989 251.218C479.872 309.598 470.645 526.834 191.221 402.766C105.696 364.79 -36.5721 607.705 -20.4269 338.636C-3.77802 61.7769 -140.931 156.808 -140.931 156.808" stroke="#B07BF3" stroke-width="1.5" stroke-miterlimit="10"/>
<path d="M-81.4394 156.374C-81.4394 156.374 163.918 104.37 198.814 172.688C233.711 241.006 217.499 221.944 300.988 249.868C468.623 305.948 462.845 523.185 189.392 399.821C100.334 359.643 -38.4575 601.193 -23.3514 337.236C-7.6385 62.71 -140.834 156.381 -140.834 156.381" stroke="#B07BF3" stroke-width="1.5" stroke-miterlimit="10"/>
<path d="M-78.5144 148.119C-78.5144 148.119 152.553 101.411 187.304 169.352C222.055 237.293 209.639 221.247 292.982 248.519C457.352 302.321 455.101 519.397 187.598 396.836C95.0133 354.427 -40.3164 594.636 -26.255 335.731C-11.5239 63.5171 -140.709 155.854 -140.709 155.854" stroke="#B07BF3" stroke-width="1.5" stroke-miterlimit="10"/>
<path d="M-75.5985 139.867C-75.5985 139.867 141.248 98.389 175.776 166.047C210.303 233.705 201.769 220.587 284.974 247.178C446.075 298.711 447.398 515.487 185.74 393.897C89.6568 349.253 -42.1737 588.169 -29.1973 334.287C-15.3996 64.42 -140.63 155.382 -140.63 155.382" stroke="#B07BF3" stroke-width="1.5" stroke-miterlimit="10"/>
<path d="M-72.6706 131.611C-72.6706 131.611 129.908 95.398 164.292 162.692C198.676 229.986 193.922 219.872 276.97 245.827C434.787 295.127 439.759 511.482 183.951 390.958C84.3313 344.029 -44.0702 581.65 -32.1303 332.826C-19.2847 65.28 -140.542 154.893 -140.542 154.893" stroke="#B07BF3" stroke-width="1.5" stroke-miterlimit="10"/>
<path d="M-69.7376 123.37C-69.7376 123.37 118.575 92.401 152.781 159.364C186.987 226.327 186.058 219.204 268.96 244.472C423.495 291.574 432.125 507.356 182.135 388.012C79.0162 338.78 -45.9617 575.147 -35.0556 331.359C-23.1891 66.139 -140.446 154.399 -140.446 154.399" stroke="#B07BF3" stroke-width="1.5" stroke-miterlimit="10"/>
<path d="M-66.832 115.111C-66.832 115.111 107.242 89.416 141.273 156.027C175.303 222.638 178.181 218.551 260.956 243.122C412.204 288.012 424.549 503.157 180.321 385.058C73.7005 333.508 -47.8617 568.616 -37.9409 329.932C-27.0616 67.033 -140.31 153.945 -140.31 153.945" stroke="#B07BF3" stroke-width="1.5" stroke-miterlimit="10"/>
<path d="M-63.9012 106.856C-63.9012 106.856 95.9097 86.418 129.77 152.704C163.631 218.989 170.313 217.889 252.955 241.772C400.871 284.533 417.004 498.885 178.505 382.111C68.4021 328.2 -49.7768 562.094 -40.906 328.436C-31.0193 67.865 -140.233 153.391 -140.233 153.391" stroke="#B07BF3" stroke-width="1.5" stroke-miterlimit="10"/>
<path d="M-60.9795 98.608C-60.9795 98.608 84.5764 83.433 118.278 149.378C151.98 215.323 162.446 217.254 244.977 240.487C389.559 281.139 409.51 494.605 176.68 379.206C63.1161 322.868 -51.7012 555.58 -43.8399 326.975C-34.9566 68.713 -140.119 152.898 -140.119 152.898" stroke="#B07BF3" stroke-width="1.5" stroke-miterlimit="10"/>
<path d="M-58.0551 90.361C-58.0551 90.361 73.227 80.458 106.75 146.038C140.274 211.618 154.544 216.605 236.932 239.061C378.188 277.576 401.999 490.13 174.874 376.21C57.8489 317.515 -53.6388 549.056 -46.7655 325.508C-38.8964 69.569 -140.04 152.392 -140.04 152.392" stroke="#B07BF3" stroke-width="1.5" stroke-miterlimit="10"/>
<path d="M-55.1365 82.101C-55.1365 82.101 61.9014 77.445 95.2496 142.707C128.598 207.97 146.658 215.98 228.944 237.723C366.873 274.17 394.539 485.681 173.055 373.264C52.5921 312.125 -55.5932 542.534 -49.6944 324.041C-42.8476 70.421 -139.947 151.897 -139.947 151.897" stroke="#B07BF3" stroke-width="1.5" stroke-miterlimit="10"/>
<path d="M-52.2133 73.854C-52.2133 73.854 50.5697 74.461 83.7371 139.379C116.904 204.296 138.764 215.371 220.927 236.376C355.519 270.769 387.113 481.151 171.242 370.309C47.356 306.69 -57.559 536.013 -52.6024 322.598C-46.7751 71.275 -139.815 151.417 -139.815 151.417" stroke="#B07BF3" stroke-width="1.5" stroke-miterlimit="10"/>
<path d="M-49.2853 65.597C-49.2853 65.597 39.2346 71.461 72.2293 136.041C105.224 200.62 130.866 214.781 212.924 235.024C344.157 267.396 379.705 476.609 169.424 367.361C42.1112 301.214 -59.5336 529.485 -55.5543 321.111C-50.795 72.121 -139.714 150.926 -139.714 150.926" stroke="#B07BF3" stroke-width="1.5" stroke-miterlimit="10"/>
<path d="M-46.3714 57.3459C-46.3714 57.3459 27.9016 68.478 60.7236 132.719C93.5457 196.959 122.994 214.224 204.919 233.676C332.794 264.059 372.313 472.014 167.599 364.424C36.9332 295.731 -61.5277 522.97 -58.4851 319.666C-54.7885 72.966 -139.648 150.402 -139.648 150.402" stroke="#B07BF3" stroke-width="1.5" stroke-miterlimit="10"/>
<path d="M-43.4469 49.098C-43.4469 49.098 16.5683 65.48 49.2123 129.39C81.8563 193.299 115.057 213.641 196.918 232.326C321.423 260.737 364.958 467.383 165.785 361.456C31.7655 290.183 -63.4896 516.462 -61.4054 318.19C-58.7769 73.788 -139.552 149.906 -139.552 149.906" stroke="#B07BF3" stroke-width="1.5" stroke-miterlimit="10"/>
<path d="M-40.5172 40.842C-40.5172 40.842 5.22966 62.4881 37.7144 126.057C70.1992 189.626 107.15 213.101 188.916 230.975C310.036 257.471 357.617 462.716 163.969 358.508C26.6275 284.575 -65.5378 509.905 -64.3312 316.721C-62.8246 74.6591 -139.444 149.408 -139.444 149.408" stroke="#B07BF3" stroke-width="1.5" stroke-miterlimit="10"/>
<path d="M-37.5944 32.595C-37.5944 32.595 -6.09714 59.497 26.2015 122.729C58.5001 185.962 99.2794 212.613 180.912 229.626C298.649 254.22 350.303 458.026 162.166 355.539C21.4986 278.954 -67.5743 503.382 -67.264 315.262C-66.8712 75.511 -139.35 148.913 -139.35 148.913" stroke="#B07BF3" stroke-width="1.5" stroke-miterlimit="10"/>
<path d="M-34.6813 24.342C-34.6813 24.342 -17.4309 56.512 14.6924 119.392C46.8156 182.272 91.3395 212.064 172.899 228.27C287.278 250.979 343.029 453.328 160.344 352.613C16.4032 273.263 -69.6202 496.851 -70.1928 313.794C-70.9355 76.3511 -139.258 148.417 -139.258 148.417" stroke="#B07BF3" stroke-width="1.5" stroke-miterlimit="10"/>
<path d="M-31.7523 16.0861C-31.7523 16.0861 -28.765 53.5131 3.18823 116.068C35.1416 178.623 83.3698 211.596 164.891 226.927C275.89 247.782 335.694 448.597 158.478 349.632C11.3395 267.514 -71.6856 490.317 -73.1411 312.321C-75.0245 77.1941 -139.158 147.914 -139.158 147.914" stroke="#B07BF3" stroke-width="1.5" stroke-miterlimit="10"/>
<path d="M-28.8276 7.83997C-28.8276 7.83997 -40.1034 50.525 -8.27693 112.727C23.5494 174.93 75.4928 211.171 156.889 225.579C264.503 244.622 328.464 443.792 156.707 346.707C6.33647 261.716 -73.7549 483.793 -76.0422 310.872C-79.1257 78.042 -139.054 147.425 -139.054 147.425" stroke="#B07BF3" stroke-width="1.5" stroke-miterlimit="10"/>
<path d="M-25.9107 -0.421021C-25.9107 -0.421021 -51.4414 47.526 -19.8335 109.403C11.7744 171.281 67.5649 210.757 148.877 224.236C253.103 241.488 321.241 438.983 154.88 343.767C1.35513 255.843 -75.8726 477.294 -78.9727 309.403C-83.267 78.886 -138.958 146.922 -138.958 146.922" stroke="#B07BF3" stroke-width="1.5" stroke-miterlimit="10"/>
<path d="M-23.0017 -8.68103C-23.0017 -8.68103 -62.7389 44.563 -31.3306 106.072C0.0776691 167.58 59.5967 210.358 140.881 222.878C241.721 238.387 314.016 434.202 153.075 340.805C-3.57224 249.902 -77.9308 470.752 -81.903 307.943C-87.4271 79.781 -138.862 146.426 -138.862 146.426" stroke="#B07BF3" stroke-width="1.5" stroke-miterlimit="10"/>
<path d="M-20.0644 -16.915C-20.0644 -16.915 -74.1078 41.544 -42.8453 102.744C-11.5827 163.945 51.719 210.049 132.844 221.507C230.296 235.293 306.777 429.336 151.223 337.837C-8.46326 243.887 -80.1252 464.177 -84.8806 306.442C-91.6102 80.585 -138.77 145.932 -138.77 145.932" stroke="#B07BF3" stroke-width="1.5" stroke-miterlimit="10"/>
<path d="M-17.1342 -25.1713C-17.1342 -25.1713 -85.438 38.559 -54.3508 99.407C-23.2636 160.255 43.7991 209.752 124.867 220.174C218.909 232.268 299.649 424.555 149.439 334.912C-13.2833 237.792 -82.243 457.685 -87.7305 305.038C-95.8271 81.441 -138.661 145.434 -138.661 145.434" stroke="#B07BF3" stroke-width="1.5" stroke-miterlimit="10"/>
<path d="M-14.2208 -33.4241C-14.2208 -33.4241 -96.7741 35.561 -65.8408 96.061C-34.9074 156.561 35.8948 209.481 116.878 218.801C207.597 229.253 292.515 419.692 147.641 331.935C-18.0339 231.577 -84.3776 451.128 -90.6752 303.525C-100.123 82.268 -138.568 144.939 -138.568 144.939" stroke="#B07BF3" stroke-width="1.5" stroke-miterlimit="10"/>
<path d="M-11.2926 -41.6788C-11.2926 -41.6788 -108.114 32.571 -77.3645 92.748C-46.6146 152.924 27.9703 209.31 108.853 217.482C196.217 226.304 285.376 414.872 145.806 329.012C-22.7348 225.327 -86.5757 444.628 -93.6026 302.057C-104.425 83.123 -138.469 144.436 -138.469 144.436" stroke="#B07BF3" stroke-width="1.5" stroke-miterlimit="10"/>
<path d="M-8.36685 -49.9259C-8.36685 -49.9259 -119.438 29.579 -88.8745 89.419C-58.3107 149.259 20.0622 209.17 100.893 216.161C184.868 223.364 278.276 410.019 143.988 326.052C-27.3763 218.911 -89.0456 438.108 -96.5378 300.605C-109.186 83.999 -138.373 143.941 -138.373 143.941" stroke="#B07BF3" stroke-width="1.5" stroke-miterlimit="10"/>
<path d="M-5.45317 -58.1797C-5.45317 -58.1797 -130.78 26.588 -100.38 86.095C-69.9812 145.602 12.1637 209.097 92.8482 214.782C173.533 220.468 271.198 405.161 142.169 323.105C-31.9006 212.406 -91.0048 431.592 -99.4743 299.165C-113.188 84.836 -138.272 143.45 -138.272 143.45" stroke="#B07BF3" stroke-width="1.5" stroke-miterlimit="10"/>
<g filter="url(#filter0_f_5_2)">
<path d="M183.835 352.875C266.704 411.496 358.825 438.007 389.592 412.089C420.359 386.171 378.122 317.638 295.252 259.017C212.383 200.396 120.263 173.884 89.4959 199.802C58.7289 225.721 100.966 294.253 183.835 352.875Z" fill="#B07BF3" fill-opacity="0.8"/>
</g>
</g>
<defs>
<filter id="filter0_f_5_2" x="-70.5553" y="39.8618" width="620.198" height="532.168" filterUnits="userSpaceOnUse" color-interpolation-filters="sRGB">
<feFlood flood-opacity="0" result="BackgroundImageFix"/>
<feBlend mode="normal" in="SourceGraphic" in2="BackgroundImageFix" result="shape"/>
<feGaussianBlur stdDeviation="75" result="effect1_foregroundBlur_5_2"/>
</filter>
<clipPath id="clip0_5_2">
<rect width="609" height="594" fill="white"/>
</clipPath>
</defs>
</svg>
