<svg width="1795" height="976" viewBox="0 0 1795 976" fill="none" xmlns="http://www.w3.org/2000/svg">
<g clip-path="url(#clip0_1_76)">
<g filter="url(#filter0_f_1_76)">
<path d="M977.243 530.99C1338 427.615 1612.76 282.07 1590.94 205.906C1569.11 129.743 1258.97 151.802 898.209 255.177C537.452 358.552 262.692 504.096 284.517 580.26C306.342 656.424 616.486 634.364 977.243 530.99Z" fill="#B07BF3" fill-opacity="0.72"/>
</g>
<path d="M1657.86 378.868C1657.86 378.868 1994.66 -144.236 1403.36 257.626C607.889 798.292 -99.8982 553.347 -518.962 667.678C-1232.39 862.32 -449.168 1056.08 -395.155 1430.41C-303.157 2068.07 -1547.03 2363.14 -1784.6 2433.13C-2774.71 2725.29 -581.617 2661.88 -754.723 2777.94C-1006.01 2946.3 -1253.21 3113.87 -1253.21 3113.87" stroke="#B07BF3" stroke-width="1.5" stroke-miterlimit="10"/>
<path d="M1648.05 374.202C1648.05 374.202 1957.17 -137.994 1371.37 259.345C589.887 789.79 -98.1921 577.567 -515.714 695.41C-1243.64 900.89 -509.539 1067.76 -464.844 1438.1C-388.45 2068.71 -1536.99 2341.66 -1772.6 2414.41C-2754.09 2717.11 -587.342 2628.67 -748.955 2749.31C-983.567 2924.44 -1266.98 3123.68 -1266.98 3123.68" stroke="#B07BF3" stroke-width="1.5" stroke-miterlimit="10"/>
<path d="M1638.29 369.537C1638.29 369.537 1919.74 -131.787 1339.37 261.074C571.872 781.303 -96.5088 601.93 -512.465 723.172C-1254.95 939.638 -569.879 1079.42 -534.54 1445.77C-473.78 2069.39 -1526.96 2320.18 -1760.71 2395.65C-2733.66 2708.89 -593.227 2595.35 -743.258 2720.6C-961.269 2902.57 -1280.82 3133.42 -1280.82 3133.42" stroke="#B07BF3" stroke-width="1.5" stroke-miterlimit="10"/>
<path d="M1628.49 364.889C1628.49 364.889 1882.3 -125.577 1307.34 262.747C553.863 772.742 -94.7596 626.308 -509.261 750.836C-1266.24 978.334 -630.31 1091.01 -604.229 1453.45C-558.894 2070.18 -1516.9 2298.75 -1748.74 2376.95C-2712.95 2700.67 -599.012 2562.17 -737.511 2691.99C-938.952 2880.82 -1294.62 3143.26 -1294.62 3143.26" stroke="#B07BF3" stroke-width="1.5" stroke-miterlimit="10"/>
<path d="M1618.7 360.207C1618.7 360.207 1844.85 -119.365 1275.36 264.487C535.874 764.263 -92.8857 650.827 -505.978 778.668C-1277.53 1017.44 -690.6 1102.77 -673.821 1461.25C-644.202 2070.79 -1506.81 2277.38 -1736.81 2358.19C-2692.28 2692.47 -604.985 2529.03 -731.808 2663.3C-916.715 2859.1 -1308.43 3153.01 -1308.43 3153.01" stroke="#B07BF3" stroke-width="1.5" stroke-miterlimit="10"/>
<path d="M1608.91 355.558C1608.91 355.558 1807.53 -113.195 1243.34 266.197C517.845 755.755 -91.2148 675.516 -502.729 806.433C-1288.8 1056.5 -750.94 1114.43 -743.474 1468.96C-729.486 2071.45 -1496.73 2255.9 -1724.87 2339.45C-2671.8 2684.19 -610.911 2495.91 -726.082 2634.65C-894.511 2837.47 -1322.22 3162.79 -1322.22 3162.79" stroke="#B07BF3" stroke-width="1.5" stroke-miterlimit="10"/>
<path d="M1599.14 350.895C1599.14 350.895 1769.98 -106.946 1211.32 267.871C499.84 747.195 -89.4521 700.203 -499.491 834.141C-1300.08 1095.64 -811.338 1126.06 -813.175 1476.64C-814.812 2072.06 -1486.59 2234.35 -1712.98 2320.62C-2651.27 2675.9 -616.867 2462.79 -720.436 2605.9C-872.423 2815.92 -1336.11 3172.45 -1336.11 3172.45" stroke="#B07BF3" stroke-width="1.5" stroke-miterlimit="10"/>
<path d="M1589.33 346.227C1589.33 346.227 1732.47 -100.688 1179.34 269.61C481.866 738.737 -87.628 725.037 -496.236 861.927C-1311.27 1134.99 -871.658 1137.77 -882.819 1484.39C-900.045 2072.81 -1476.56 2213.11 -1701.02 2301.92C-2630.68 2667.71 -622.77 2429.86 -714.673 2577.29C-850.106 2794.53 -1349.9 3182.32 -1349.9 3182.32" stroke="#B07BF3" stroke-width="1.5" stroke-miterlimit="10"/>
<path d="M1579.54 341.543C1579.54 341.543 1695.13 -94.5397 1147.36 271.328C463.794 730.127 -85.852 749.843 -492.971 889.679C-1322.49 1174.43 -932.027 1149.45 -952.469 1492.09C-985.321 2073.46 -1466.56 2191.59 -1689.13 2283.21C-2610.15 2659.51 -628.721 2397.01 -708.99 2548.64C-828.016 2773.33 -1363.75 3192.09 -1363.75 3192.09" stroke="#B07BF3" stroke-width="1.5" stroke-miterlimit="10"/>
<path d="M1569.76 336.92C1569.76 336.92 1657.69 -88.3278 1115.33 273.04C445.851 721.712 -83.9983 774.817 -489.744 917.424C-1333.67 1213.98 -992.375 1161.12 -1022.14 1499.8C-1070.49 2074.08 -1456.52 2170.13 -1677.16 2264.42C-2589.54 2651.25 -634.529 2364.11 -703.309 2519.97C-805.637 2752.03 -1377.61 3201.87 -1377.61 3201.87" stroke="#B07BF3" stroke-width="1.5" stroke-miterlimit="10"/>
<path d="M1559.98 332.232C1559.98 332.232 1620.26 -82.1206 1083.31 274.71C427.889 713.252 -82.1435 799.824 -486.614 945.206C-1344.94 1253.67 -1052.83 1172.8 -1091.93 1507.54C-1155.96 2074.85 -1446.58 2148.71 -1665.34 2245.68C-2569.07 2643.03 -640.454 2331.34 -697.634 2491.28C-783.317 2730.85 -1391.48 3211.62 -1391.48 3211.62" stroke="#B07BF3" stroke-width="1.5" stroke-miterlimit="10"/>
<path d="M1550.19 327.587C1550.19 327.587 1582.82 -75.9086 1051.34 276.45C409.848 704.688 -80.2591 824.939 -483.228 972.94C-1355.94 1293.44 -1113.76 1184.38 -1161.43 1515.3C-1242.25 2075.37 -1436.33 2127.21 -1653.3 2226.9C-2548.4 2634.76 -646.076 2298.57 -691.808 2462.59C-760.742 2709.72 -1405.17 3221.38 -1405.17 3221.38" stroke="#B07BF3" stroke-width="1.5" stroke-miterlimit="10"/>
<path d="M1540.4 322.903C1540.4 322.903 1545.38 -69.6991 1019.35 278.166C391.848 696.186 -78.3614 850.071 -479.999 1000.68C-1367.04 1333.33 -1174.15 1196.04 -1231.13 1522.93C-1327.56 2076.03 -1426.34 2105.82 -1641.36 2208.13C-2527.91 2626.59 -651.744 2265.82 -686.087 2433.94C-738.17 2688.7 -1418.99 3231.15 -1418.99 3231.15" stroke="#B07BF3" stroke-width="1.5" stroke-miterlimit="10"/>
<path d="M1530.6 318.256C1530.6 318.256 1507.94 -63.4871 987.366 279.944C373.894 687.653 -76.4575 875.265 -476.735 1028.43C-1378.08 1373.35 -1234.51 1207.68 -1300.75 1530.67C-1412.81 2076.66 -1416.25 2084.38 -1629.38 2189.42C-2507.19 2618.3 -657.31 2233.16 -680.344 2405.25C-715.441 2667.66 -1432.76 3240.91 -1432.76 3240.91" stroke="#B07BF3" stroke-width="1.5" stroke-miterlimit="10"/>
<path d="M1520.83 313.592C1520.83 313.592 1470.5 -57.2798 955.334 281.592C355.897 679.244 -74.5221 900.498 -473.489 1056.2C-1389.08 1413.49 -1294.87 1219.32 -1370.47 1538.36C-1498.15 2077.28 -1406.16 2062.99 -1617.48 2170.65C-2486.7 2610.08 -662.938 2200.33 -674.652 2376.56C-692.711 2646.64 -1446.63 3250.66 -1446.63 3250.66" stroke="#B07BF3" stroke-width="1.5" stroke-miterlimit="10"/>
<path d="M1511.02 308.925C1511.02 308.925 1432.43 -52.0016 923.225 283.39C336.981 669.592 -72.7005 925.871 -470.357 1084.01C-1400.17 1453.82 -1355.34 1231.05 -1440.26 1546.14C-1583.52 2078 -1396.28 2041.55 -1605.68 2151.96C-2466.25 2601.91 -668.488 2167.74 -669.064 2347.95C-669.963 2625.58 -1460.59 3260.5 -1460.59 3260.5" stroke="#B07BF3" stroke-width="1.5" stroke-miterlimit="10"/>
<path d="M1501.25 304.261C1501.25 304.261 1394.93 -45.8798 891.335 285.007C319.081 660.991 -70.6315 951.111 -467.001 1111.69C-1410.97 1494.13 -1415.59 1242.61 -1509.78 1553.79C-1668.67 2078.55 -1386.11 2020.03 -1593.65 2133.11C-2445.62 2593.51 -673.801 2134.88 -663.245 2319.2C-646.918 2604.43 -1474.36 3270.08 -1474.36 3270.08" stroke="#B07BF3" stroke-width="1.5" stroke-miterlimit="10"/>
<path d="M1491.45 299.614C1491.45 299.614 1357.52 -39.6243 859.277 286.675C301.014 652.44 -68.6775 976.427 -463.818 1139.37C-1421.88 1534.52 -1475.98 1254.21 -1579.5 1561.44C-1753.97 2079.12 -1376.11 1998.5 -1581.76 2114.28C-2425.02 2585.31 -679.187 2102.09 -657.539 2290.53C-623.912 2583.27 -1488.12 3279.94 -1488.12 3279.94" stroke="#B07BF3" stroke-width="1.5" stroke-miterlimit="10"/>
<path d="M1481.67 294.93C1481.67 294.93 1320.15 -33.3861 827.21 288.512C282.975 644.065 -66.7497 1001.99 -460.57 1167.24C-1432.64 1575.16 -1536.21 1265.99 -1649.12 1569.22C-1839.25 2079.93 -1366 1977.13 -1569.78 2095.6C-2404.44 2577.09 -684.541 2069.28 -651.827 2261.83C-600.829 2562.06 -1502 3289.59 -1502 3289.59" stroke="#B07BF3" stroke-width="1.5" stroke-miterlimit="10"/>
<path d="M1471.87 290.284C1471.87 290.284 1282.64 -27.2617 795.326 290.154C265.084 635.486 -64.6364 1027.35 -457.265 1194.96C-1443.4 1615.86 -1596.59 1277.57 -1718.79 1576.91C-1924.37 2080.48 -1355.95 1955.69 -1557.89 2076.77C-2383.94 2568.83 -689.921 2036.33 -646.098 2233.21C-577.711 2540.82 -1515.83 3299.39 -1515.83 3299.39" stroke="#B07BF3" stroke-width="1.5" stroke-miterlimit="10"/>
<path d="M1462.1 285.621C1462.1 285.621 1245.24 -21.0458 763.301 291.864C247.122 627.086 -62.6006 1052.84 -453.953 1222.77C-1454.12 1656.68 -1656.85 1289.32 -1788.38 1584.72C-2009.5 2081.27 -1345.83 1934.35 -1545.86 2058.19C-2363.23 2560.72 -695.102 2003.59 -640.347 2204.6C-554.506 2519.56 -1529.59 3309.21 -1529.59 3309.21" stroke="#B07BF3" stroke-width="1.5" stroke-miterlimit="10"/>
<path d="M1452.29 280.953C1452.29 280.953 1207.81 -14.7769 731.31 293.58C229.131 618.549 -60.5363 1078.36 -450.77 1250.45C-1464.77 1697.6 -1717.22 1300.89 -1858.14 1592.28C-2094.8 2081.77 -1335.88 1912.76 -1534.02 2039.27C-2342.67 2552.28 -700.549 1970.45 -634.751 2175.72C-531.397 2498.12 -1543.53 3318.92 -1543.53 3318.92" stroke="#B07BF3" stroke-width="1.5" stroke-miterlimit="10"/>
<path d="M1442.52 276.288C1442.52 276.288 1170.39 -8.54546 699.311 295.274C211.18 610.11 -58.4977 1103.94 -447.522 1278.23C-1475.37 1738.65 -1776.98 1312.84 -1927.78 1600.04C-2179.01 2082.93 -1325.78 1891.36 -1522.06 2020.55C-2322.15 2544.15 -705.746 1937.63 -628.966 2147.13C-508.193 2476.68 -1557.32 3328.65 -1557.32 3328.65" stroke="#B07BF3" stroke-width="1.5" stroke-miterlimit="10"/>
<path d="M1432.64 271.703C1432.64 271.703 1132.91 -2.20866 667.228 297.052C193.134 601.735 -56.4517 1129.54 -444.363 1306C-1485.81 1779.73 -1837.32 1324.5 -1997.48 1607.78C-2264.33 2083.61 -1315.78 1869.95 -1510.17 2001.83C-2301.64 2535.95 -711.076 1904.67 -623.294 2118.51C-485.071 2455.27 -1571.18 3338.42 -1571.18 3338.42" stroke="#B07BF3" stroke-width="1.5" stroke-miterlimit="10"/>
<path d="M1422.89 267.023C1422.89 267.023 1096.08 4.91062 635.178 298.68C175.673 594.037 -54.3456 1155.13 -441.157 1333.66C-1496.49 1821 -1897.82 1336.14 -2067.23 1615.4C-2349.68 2084.23 -1305.78 1848.42 -1498.32 1983.01C-2281.14 2527.62 -716.436 1871.55 -617.671 2089.75C-461.975 2433.7 -1585.1 3348.11 -1585.1 3348.11" stroke="#B07BF3" stroke-width="1.5" stroke-miterlimit="10"/>
<path d="M1413.12 262.324C1413.12 262.324 1058.69 11.0545 603.299 300.419C157.831 585.618 -52.1252 1180.75 -437.779 1361.43C-1506.78 1862.41 -1958.04 1347.84 -2136.78 1623.16C-2434.84 2084.97 -1295.61 1827.01 -1486.26 1964.31C-2260.43 2519.43 -721.591 1838.6 -611.839 2061.12C-438.662 2412.2 -1598.78 3357.91 -1598.78 3357.91" stroke="#B07BF3" stroke-width="1.5" stroke-miterlimit="10"/>
<path d="M1403.36 257.624C1403.36 257.624 1021.26 17.2639 571.313 302.132C139.859 577.1 -49.969 1206.4 -434.533 1389.2C-1517.09 1903.92 -2018.41 1359.52 -2206.43 1630.9C-2520.08 2085.56 -1285.55 1805.57 -1474.34 1945.52C-2239.92 2511.12 -726.884 1805.48 -606.098 2032.48C-415.516 2390.61 -1612.61 3367.73 -1612.61 3367.73" stroke="#B07BF3" stroke-width="1.5" stroke-miterlimit="10"/>
<path d="M1393.61 252.947C1393.61 252.947 983.924 23.5308 539.353 303.801C121.792 568.552 -47.8036 1232.08 -431.291 1416.97C-1527.41 1945.44 -2078.75 1371.18 -2276.08 1638.59C-2605.37 2086.31 -1275.49 1784.14 -1462.41 1926.78C-2219.3 2502.96 -732.189 1772.41 -600.386 2003.76C-392.295 2369.08 -1626.5 3377.31 -1626.5 3377.31" stroke="#B07BF3" stroke-width="1.5" stroke-miterlimit="10"/>
<path d="M1383.87 248.269C1383.87 248.269 946.338 29.714 507.365 305.517C103.848 559.982 -45.5523 1257.74 -428.027 1444.57C-1537.61 1986.97 -2139.09 1382.71 -2345.74 1646.18C-2690.63 2086.83 -1265.42 1762.55 -1450.39 1907.85C-2198.66 2494.55 -736.925 1738.85 -594.602 1974.92C-368.281 2346.86 -1640.18 3387.02 -1640.18 3387.02" stroke="#B07BF3" stroke-width="1.5" stroke-miterlimit="10"/>
<path d="M1373.99 243.646C1373.99 243.646 908.874 35.7876 475.295 307.257C85.806 551.51 -43.1681 1284.03 -424.816 1472.47C-1547.02 2030.5 -2199.49 1394.55 -2415.44 1654.05C-2775.92 2087.67 -1255.47 1741.15 -1438.54 1889.28C-2178.18 2486.5 -742.583 1706.08 -588.993 1946.42C-345.637 2325.6 -1654.11 3396.97 -1654.11 3396.97" stroke="#B07BF3" stroke-width="1.5" stroke-miterlimit="10"/>
<path d="M1364.22 238.984C1364.22 238.984 871.507 42.1047 443.303 308.976C67.8113 543.069 -41.2138 1309.24 -421.528 1500.22C-1557.84 2070.77 -2259.82 1406.19 -2485.03 1661.83C-2861.1 2088.43 -1245.34 1719.91 -1426.52 1870.58C-2157.54 2478.33 -748.154 1673.25 -583.3 1917.88C-322.874 2304.31 -1667.94 3406.85 -1667.94 3406.85" stroke="#B07BF3" stroke-width="1.5" stroke-miterlimit="10"/>
<path d="M1657.86 378.868C1657.86 378.868 1994.66 -144.236 1403.36 257.626C607.889 798.292 -99.8982 553.347 -518.962 667.678C-1232.39 862.32 -449.168 1056.08 -395.155 1430.41C-303.157 2068.07 -1547.03 2363.14 -1784.6 2433.13C-2774.71 2725.29 -581.617 2661.88 -754.723 2777.94C-1006.01 2946.3 -1253.21 3113.87 -1253.21 3113.87" stroke="#B07BF3" stroke-width="1.5" stroke-miterlimit="10"/>
<path d="M1648.05 374.202C1648.05 374.202 1957.17 -137.994 1371.37 259.345C589.887 789.79 -98.1921 577.567 -515.714 695.41C-1243.64 900.89 -509.539 1067.76 -464.844 1438.1C-388.45 2068.71 -1536.99 2341.66 -1772.6 2414.41C-2754.09 2717.11 -587.342 2628.67 -748.955 2749.31C-983.567 2924.44 -1266.98 3123.68 -1266.98 3123.68" stroke="#B07BF3" stroke-width="1.5" stroke-miterlimit="10"/>
<path d="M1638.29 369.537C1638.29 369.537 1919.74 -131.787 1339.37 261.074C571.872 781.303 -96.5088 601.93 -512.465 723.172C-1254.95 939.638 -569.879 1079.42 -534.54 1445.77C-473.78 2069.39 -1526.96 2320.18 -1760.71 2395.65C-2733.66 2708.89 -593.227 2595.35 -743.258 2720.6C-961.269 2902.57 -1280.82 3133.42 -1280.82 3133.42" stroke="#B07BF3" stroke-width="1.5" stroke-miterlimit="10"/>
<path d="M1628.49 364.889C1628.49 364.889 1882.3 -125.577 1307.34 262.747C553.863 772.742 -94.7596 626.308 -509.261 750.836C-1266.24 978.334 -630.31 1091.01 -604.229 1453.45C-558.894 2070.18 -1516.9 2298.75 -1748.74 2376.95C-2712.95 2700.67 -599.012 2562.17 -737.511 2691.99C-938.952 2880.82 -1294.62 3143.26 -1294.62 3143.26" stroke="#B07BF3" stroke-width="1.5" stroke-miterlimit="10"/>
<path d="M1618.7 360.207C1618.7 360.207 1844.85 -119.365 1275.36 264.487C535.874 764.263 -92.8857 650.827 -505.978 778.668C-1277.53 1017.44 -690.6 1102.77 -673.821 1461.25C-644.202 2070.79 -1506.81 2277.38 -1736.81 2358.19C-2692.28 2692.47 -604.985 2529.03 -731.808 2663.3C-916.715 2859.1 -1308.43 3153.01 -1308.43 3153.01" stroke="#B07BF3" stroke-width="1.5" stroke-miterlimit="10"/>
<path d="M1608.91 355.558C1608.91 355.558 1807.53 -113.195 1243.34 266.197C517.845 755.755 -91.2148 675.516 -502.729 806.433C-1288.8 1056.5 -750.94 1114.43 -743.474 1468.96C-729.486 2071.45 -1496.73 2255.9 -1724.87 2339.45C-2671.8 2684.19 -610.911 2495.91 -726.082 2634.65C-894.511 2837.47 -1322.22 3162.79 -1322.22 3162.79" stroke="#B07BF3" stroke-width="1.5" stroke-miterlimit="10"/>
<path d="M1599.14 350.895C1599.14 350.895 1769.98 -106.946 1211.32 267.871C499.84 747.195 -89.4521 700.203 -499.491 834.141C-1300.08 1095.64 -811.338 1126.06 -813.175 1476.64C-814.812 2072.06 -1486.59 2234.35 -1712.98 2320.62C-2651.27 2675.9 -616.867 2462.79 -720.436 2605.9C-872.423 2815.92 -1336.11 3172.45 -1336.11 3172.45" stroke="#B07BF3" stroke-width="1.5" stroke-miterlimit="10"/>
<path d="M1589.33 346.227C1589.33 346.227 1732.47 -100.688 1179.34 269.61C481.866 738.737 -87.628 725.037 -496.236 861.927C-1311.27 1134.99 -871.658 1137.77 -882.819 1484.39C-900.045 2072.81 -1476.56 2213.11 -1701.02 2301.92C-2630.68 2667.71 -622.77 2429.86 -714.673 2577.29C-850.106 2794.53 -1349.9 3182.32 -1349.9 3182.32" stroke="#B07BF3" stroke-width="1.5" stroke-miterlimit="10"/>
<path d="M1579.54 341.543C1579.54 341.543 1695.13 -94.5397 1147.36 271.328C463.794 730.127 -85.852 749.843 -492.971 889.679C-1322.49 1174.43 -932.027 1149.45 -952.469 1492.09C-985.321 2073.46 -1466.56 2191.59 -1689.13 2283.21C-2610.15 2659.51 -628.721 2397.01 -708.99 2548.64C-828.016 2773.33 -1363.75 3192.09 -1363.75 3192.09" stroke="#B07BF3" stroke-width="1.5" stroke-miterlimit="10"/>
<path d="M1569.76 336.92C1569.76 336.92 1657.69 -88.3278 1115.33 273.04C445.851 721.712 -83.9983 774.817 -489.744 917.424C-1333.67 1213.98 -992.375 1161.12 -1022.14 1499.8C-1070.49 2074.08 -1456.52 2170.13 -1677.16 2264.42C-2589.54 2651.25 -634.529 2364.11 -703.309 2519.97C-805.637 2752.03 -1377.61 3201.87 -1377.61 3201.87" stroke="#B07BF3" stroke-width="1.5" stroke-miterlimit="10"/>
<path d="M1559.98 332.232C1559.98 332.232 1620.26 -82.1206 1083.31 274.71C427.889 713.252 -82.1435 799.824 -486.614 945.206C-1344.94 1253.67 -1052.83 1172.8 -1091.93 1507.54C-1155.96 2074.85 -1446.58 2148.71 -1665.34 2245.68C-2569.07 2643.03 -640.454 2331.34 -697.634 2491.28C-783.317 2730.85 -1391.48 3211.62 -1391.48 3211.62" stroke="#B07BF3" stroke-width="1.5" stroke-miterlimit="10"/>
<path d="M1550.19 327.587C1550.19 327.587 1582.82 -75.9086 1051.34 276.45C409.848 704.688 -80.2591 824.939 -483.228 972.94C-1355.94 1293.44 -1113.76 1184.38 -1161.43 1515.3C-1242.25 2075.37 -1436.33 2127.21 -1653.3 2226.9C-2548.4 2634.76 -646.076 2298.57 -691.808 2462.59C-760.742 2709.72 -1405.17 3221.38 -1405.17 3221.38" stroke="#B07BF3" stroke-width="1.5" stroke-miterlimit="10"/>
<path d="M1540.4 322.903C1540.4 322.903 1545.38 -69.6991 1019.35 278.166C391.848 696.186 -78.3614 850.071 -479.999 1000.68C-1367.04 1333.33 -1174.15 1196.04 -1231.13 1522.93C-1327.56 2076.03 -1426.34 2105.82 -1641.36 2208.13C-2527.91 2626.59 -651.744 2265.82 -686.087 2433.94C-738.17 2688.7 -1418.99 3231.15 -1418.99 3231.15" stroke="#B07BF3" stroke-width="1.5" stroke-miterlimit="10"/>
<path d="M1530.6 318.256C1530.6 318.256 1507.94 -63.4871 987.366 279.944C373.894 687.653 -76.4575 875.265 -476.735 1028.43C-1378.08 1373.35 -1234.51 1207.68 -1300.75 1530.67C-1412.81 2076.66 -1416.25 2084.38 -1629.38 2189.42C-2507.19 2618.3 -657.31 2233.16 -680.344 2405.25C-715.441 2667.66 -1432.76 3240.91 -1432.76 3240.91" stroke="#B07BF3" stroke-width="1.5" stroke-miterlimit="10"/>
<path d="M1520.83 313.592C1520.83 313.592 1470.5 -57.2798 955.334 281.592C355.897 679.244 -74.5221 900.498 -473.489 1056.2C-1389.08 1413.49 -1294.87 1219.32 -1370.47 1538.36C-1498.15 2077.28 -1406.16 2062.99 -1617.48 2170.65C-2486.7 2610.08 -662.938 2200.33 -674.652 2376.56C-692.711 2646.64 -1446.63 3250.66 -1446.63 3250.66" stroke="#B07BF3" stroke-width="1.5" stroke-miterlimit="10"/>
<path d="M1511.02 308.925C1511.02 308.925 1432.43 -52.0016 923.225 283.39C336.981 669.592 -72.7005 925.871 -470.357 1084.01C-1400.17 1453.82 -1355.34 1231.05 -1440.26 1546.14C-1583.52 2078 -1396.28 2041.55 -1605.68 2151.96C-2466.25 2601.91 -668.488 2167.74 -669.064 2347.95C-669.963 2625.58 -1460.59 3260.5 -1460.59 3260.5" stroke="#B07BF3" stroke-width="1.5" stroke-miterlimit="10"/>
<path d="M1501.25 304.261C1501.25 304.261 1394.93 -45.8798 891.335 285.007C319.081 660.991 -70.6315 951.111 -467.001 1111.69C-1410.97 1494.13 -1415.59 1242.61 -1509.78 1553.79C-1668.67 2078.55 -1386.11 2020.03 -1593.65 2133.11C-2445.62 2593.51 -673.801 2134.88 -663.245 2319.2C-646.918 2604.43 -1474.36 3270.08 -1474.36 3270.08" stroke="#B07BF3" stroke-width="1.5" stroke-miterlimit="10"/>
<path d="M1491.45 299.614C1491.45 299.614 1357.52 -39.6243 859.277 286.675C301.014 652.44 -68.6775 976.427 -463.818 1139.37C-1421.88 1534.52 -1475.98 1254.21 -1579.5 1561.44C-1753.97 2079.12 -1376.11 1998.5 -1581.76 2114.28C-2425.02 2585.31 -679.187 2102.09 -657.539 2290.53C-623.912 2583.27 -1488.12 3279.94 -1488.12 3279.94" stroke="#B07BF3" stroke-width="1.5" stroke-miterlimit="10"/>
<path d="M1481.67 294.93C1481.67 294.93 1320.15 -33.3861 827.21 288.512C282.975 644.065 -66.7497 1001.99 -460.57 1167.24C-1432.64 1575.16 -1536.21 1265.99 -1649.12 1569.22C-1839.25 2079.93 -1366 1977.13 -1569.78 2095.6C-2404.44 2577.09 -684.541 2069.28 -651.827 2261.83C-600.829 2562.06 -1502 3289.59 -1502 3289.59" stroke="#B07BF3" stroke-width="1.5" stroke-miterlimit="10"/>
<path d="M1471.87 290.284C1471.87 290.284 1282.64 -27.2617 795.326 290.154C265.084 635.486 -64.6364 1027.35 -457.265 1194.96C-1443.4 1615.86 -1596.59 1277.57 -1718.79 1576.91C-1924.37 2080.48 -1355.95 1955.69 -1557.89 2076.77C-2383.94 2568.83 -689.921 2036.33 -646.098 2233.21C-577.711 2540.82 -1515.83 3299.39 -1515.83 3299.39" stroke="#B07BF3" stroke-width="1.5" stroke-miterlimit="10"/>
<path d="M1462.1 285.621C1462.1 285.621 1245.24 -21.0458 763.301 291.864C247.122 627.086 -62.6006 1052.84 -453.953 1222.77C-1454.12 1656.68 -1656.85 1289.32 -1788.38 1584.72C-2009.5 2081.27 -1345.83 1934.35 -1545.86 2058.19C-2363.23 2560.72 -695.102 2003.59 -640.347 2204.6C-554.506 2519.56 -1529.59 3309.21 -1529.59 3309.21" stroke="#B07BF3" stroke-width="1.5" stroke-miterlimit="10"/>
<path d="M1452.29 280.953C1452.29 280.953 1207.81 -14.7769 731.31 293.58C229.131 618.549 -60.5363 1078.36 -450.77 1250.45C-1464.77 1697.6 -1717.22 1300.89 -1858.14 1592.28C-2094.8 2081.77 -1335.88 1912.76 -1534.02 2039.27C-2342.67 2552.28 -700.549 1970.45 -634.751 2175.72C-531.397 2498.12 -1543.53 3318.92 -1543.53 3318.92" stroke="#B07BF3" stroke-width="1.5" stroke-miterlimit="10"/>
<path d="M1442.52 276.288C1442.52 276.288 1170.39 -8.54546 699.311 295.274C211.18 610.11 -58.4977 1103.94 -447.522 1278.23C-1475.37 1738.65 -1776.98 1312.84 -1927.78 1600.04C-2179.01 2082.93 -1325.78 1891.36 -1522.06 2020.55C-2322.15 2544.15 -705.746 1937.63 -628.966 2147.13C-508.193 2476.68 -1557.32 3328.65 -1557.32 3328.65" stroke="#B07BF3" stroke-width="1.5" stroke-miterlimit="10"/>
<path d="M1432.64 271.703C1432.64 271.703 1132.91 -2.20866 667.228 297.052C193.134 601.735 -56.4517 1129.54 -444.363 1306C-1485.81 1779.73 -1837.32 1324.5 -1997.48 1607.78C-2264.33 2083.61 -1315.78 1869.95 -1510.17 2001.83C-2301.64 2535.95 -711.076 1904.67 -623.294 2118.51C-485.071 2455.27 -1571.18 3338.42 -1571.18 3338.42" stroke="#B07BF3" stroke-width="1.5" stroke-miterlimit="10"/>
<path d="M1422.89 267.023C1422.89 267.023 1096.08 4.91062 635.178 298.68C175.673 594.037 -54.3456 1155.13 -441.157 1333.66C-1496.49 1821 -1897.82 1336.14 -2067.23 1615.4C-2349.68 2084.23 -1305.78 1848.42 -1498.32 1983.01C-2281.14 2527.62 -716.436 1871.55 -617.671 2089.75C-461.975 2433.7 -1585.1 3348.11 -1585.1 3348.11" stroke="#B07BF3" stroke-width="1.5" stroke-miterlimit="10"/>
<path d="M1413.12 262.324C1413.12 262.324 1058.69 11.0545 603.299 300.419C157.831 585.618 -52.1252 1180.75 -437.779 1361.43C-1506.78 1862.41 -1958.04 1347.84 -2136.78 1623.16C-2434.84 2084.97 -1295.61 1827.01 -1486.26 1964.31C-2260.43 2519.43 -721.591 1838.6 -611.839 2061.12C-438.662 2412.2 -1598.78 3357.91 -1598.78 3357.91" stroke="#B07BF3" stroke-width="1.5" stroke-miterlimit="10"/>
<path d="M1403.36 257.624C1403.36 257.624 1021.26 17.2639 571.313 302.132C139.859 577.1 -49.969 1206.4 -434.533 1389.2C-1517.09 1903.92 -2018.41 1359.52 -2206.43 1630.9C-2520.08 2085.56 -1285.55 1805.57 -1474.34 1945.52C-2239.92 2511.12 -726.884 1805.48 -606.098 2032.48C-415.516 2390.61 -1612.61 3367.73 -1612.61 3367.73" stroke="#B07BF3" stroke-width="1.5" stroke-miterlimit="10"/>
<path d="M1393.61 252.947C1393.61 252.947 983.924 23.5308 539.353 303.801C121.792 568.552 -47.8036 1232.08 -431.291 1416.97C-1527.41 1945.44 -2078.75 1371.18 -2276.08 1638.59C-2605.37 2086.31 -1275.49 1784.14 -1462.41 1926.78C-2219.3 2502.96 -732.189 1772.41 -600.386 2003.76C-392.295 2369.08 -1626.5 3377.31 -1626.5 3377.31" stroke="#B07BF3" stroke-width="1.5" stroke-miterlimit="10"/>
<path d="M1383.87 248.269C1383.87 248.269 946.338 29.714 507.365 305.517C103.848 559.982 -45.5523 1257.74 -428.027 1444.57C-1537.61 1986.97 -2139.09 1382.71 -2345.74 1646.18C-2690.63 2086.83 -1265.42 1762.55 -1450.39 1907.85C-2198.66 2494.55 -736.925 1738.85 -594.602 1974.92C-368.281 2346.86 -1640.18 3387.02 -1640.18 3387.02" stroke="#B07BF3" stroke-width="1.5" stroke-miterlimit="10"/>
<path d="M1373.99 243.646C1373.99 243.646 908.874 35.7876 475.295 307.257C85.806 551.51 -43.1681 1284.03 -424.816 1472.47C-1547.02 2030.5 -2199.49 1394.55 -2415.44 1654.05C-2775.92 2087.67 -1255.47 1741.15 -1438.54 1889.28C-2178.18 2486.5 -742.583 1706.08 -588.993 1946.42C-345.637 2325.6 -1654.11 3396.97 -1654.11 3396.97" stroke="#B07BF3" stroke-width="1.5" stroke-miterlimit="10"/>
<path d="M1364.22 238.984C1364.22 238.984 871.507 42.1047 443.303 308.976C67.8113 543.069 -41.2138 1309.24 -421.528 1500.22C-1557.84 2070.77 -2259.82 1406.19 -2485.03 1661.83C-2861.1 2088.43 -1245.34 1719.91 -1426.52 1870.58C-2157.54 2478.33 -748.154 1673.25 -583.3 1917.88C-322.874 2304.31 -1667.94 3406.85 -1667.94 3406.85" stroke="#B07BF3" stroke-width="1.5" stroke-miterlimit="10"/>
</g>
<defs>
<filter id="filter0_f_1_76" x="50.3018" y="-72.4258" width="1774.85" height="931.018" filterUnits="userSpaceOnUse" color-interpolation-filters="sRGB">
<feFlood flood-opacity="0" result="BackgroundImageFix"/>
<feBlend mode="normal" in="SourceGraphic" in2="BackgroundImageFix" result="shape"/>
<feGaussianBlur stdDeviation="116.5" result="effect1_foregroundBlur_1_76"/>
</filter>
<clipPath id="clip0_1_76">
<rect width="1795" height="976" fill="white"/>
</clipPath>
</defs>
</svg>
