<svg width="117" height="86" viewBox="0 0 117 86" fill="none" xmlns="http://www.w3.org/2000/svg">
<path fill-rule="evenodd" clip-rule="evenodd" d="M21.6265 44.5026C20.1267 55.8999 16.1194 65.9197 9.71975 74.6211C9.39764 75.0554 9.46588 75.6511 9.8765 76.0068L21.1213 85.7394C21.5602 86.1179 22.2308 86.0789 22.6242 85.656C37.417 69.5894 47.7725 53.3369 47.7725 30.9493V1.11339C47.7725 0.500904 47.2592 0 46.6316 0H1.14089C0.513274 0 0 0.500904 0 1.11339V43.3901C0 44.0026 0.513274 44.5035 1.14089 44.5035H21.6265L21.6265 44.5026Z" fill="#B07BF3"/>
<path fill-rule="evenodd" clip-rule="evenodd" d="M90.3792 44.5026C88.8801 55.8999 84.8749 65.9197 78.4759 74.6211C78.1564 75.0554 78.2252 75.6511 78.6357 76.0068L89.8748 85.7394C90.311 86.1179 90.9837 86.0789 91.3739 85.656C106.162 69.5894 116.513 53.3369 116.513 30.9493V1.11339C116.513 0.500904 116 0 115.372 0H69.9045C69.2747 0 68.7617 0.500904 68.7617 1.11339V43.3901C68.7617 44.0026 69.2747 44.5035 69.9045 44.5035H90.3798L90.3792 44.5026Z" fill="#B07BF3"/>
</svg>
