<svg width="46" height="45" viewBox="0 0 46 45" fill="none" xmlns="http://www.w3.org/2000/svg">
<path d="M22.8459 0.367188C10.5236 0.367188 0.5 10.3776 0.5 22.6836C0.5 34.9896 10.5236 45 22.8459 45C35.1683 45 45.1919 34.9896 45.1919 22.6836C45.1919 10.3776 35.1683 0.367188 22.8459 0.367188ZM33.7634 18.3406C33.7731 18.5696 33.7789 18.8025 33.7789 19.0363C33.7789 26.1368 28.3644 34.3269 18.4652 34.3269C15.4261 34.3269 12.596 33.4372 10.2156 31.9119C10.6363 31.9624 11.0628 31.9866 11.4991 31.9866C14.0212 31.9866 16.3423 31.1289 18.1824 29.6871C15.8274 29.6444 13.8415 28.0871 13.1546 25.9544C13.484 26.0175 13.8211 26.0514 14.1689 26.0514C14.6595 26.0514 15.1356 25.9864 15.5854 25.8622C13.1255 25.3664 11.2707 23.1969 11.2707 20.5917C11.2707 20.5684 11.2707 20.5461 11.2707 20.5238C11.9965 20.9264 12.8252 21.169 13.7084 21.1971C12.2627 20.2317 11.3145 18.5881 11.3145 16.7232C11.3145 15.7383 11.5787 14.8156 12.0422 14.02C14.6974 17.2714 18.6634 19.4108 23.1355 19.636C23.0432 19.242 22.9946 18.8326 22.9946 18.4115C22.9946 15.4434 25.4041 13.0371 28.377 13.0371C29.9247 13.0371 31.3228 13.6891 32.3041 14.7341C33.5292 14.4935 34.6825 14.0462 35.722 13.431C35.3208 14.6846 34.4668 15.7383 33.3544 16.404C34.4444 16.272 35.4801 15.9848 36.4468 15.5569C35.7259 16.6349 34.8136 17.5828 33.7634 18.3406Z" fill="#FDFDFD"/>
</svg>
